<svg xmlns="http://www.w3.org/2000/svg" xmlns:xlink="http://www.w3.org/1999/xlink" viewBox="0 0 414 736"><defs><style>.a,.d{fill:none;}.b{clip-path:url(#d);}.c{clip-path:url(#a);}.d,.f{stroke:#e9290f;}.d{stroke-linecap:round;stroke-width:20px;}.e{clip-path:url(#b);}.f{fill:#e9290f;}.g{fill:#ff6f29;stroke:#ff6f29;}.h{fill:#fff;}</style><clipPath id="a"><path class="a" d="M0-214H279.929V124.445H0Z" transform="translate(0 214)"/></clipPath><clipPath id="b"><path class="a" d="M0-361.582H452.292V108.93H0Z" transform="translate(0 361.582)"/></clipPath><clipPath id="d"><rect width="414" height="736"/></clipPath></defs><g id="c" class="b"><rect class="h" width="414" height="736"/><g transform="translate(288 601)"><g class="c" transform="translate(0 -214)"><g transform="translate(15.815 107.543)"><path class="d" d="M0,79.087,215.087-136" transform="translate(0 136)"/></g><g transform="translate(49.027 15.815)"><path class="d" d="M0,79.087,215.087-136" transform="translate(0 136)"/></g></g></g><g transform="translate(-8 355.164)"><g class="e" transform="translate(0 -361.582)"><path class="f" d="M0,.151H451.512l-.694,111.99C360.053,422.477,136.637,227.3,1.552,469.32l-.776-.065V-.5" transform="translate(0 0.5)"/><g transform="translate(1.543 0.651)"><path class="g" d="M125.765,0H31.118C-17.754,219.342-229.549,201.775-228,469.169-229.549,201.775,76.978,219.342,125.85,0" transform="translate(228.006)"/></g></g></g></g></svg>