<svg xmlns="http://www.w3.org/2000/svg" xmlns:xlink="http://www.w3.org/1999/xlink" viewBox="0 0 1920 1080"><defs><style>.a,.g,.i{fill:none;}.b{clip-path:url(#d);}.c{clip-path:url(#a);}.d{fill:#e9290f;}.d,.i{stroke:#e9290f;}.e{fill:#ff6f29;stroke:#ff6f29;}.f{fill:#ff6006;}.g{stroke:#ff6006;}.h{clip-path:url(#b);}.i{stroke-linecap:round;stroke-width:20px;}.j{fill:#fff;}</style><clipPath id="a"><path class="a" d="M0-561.005H438.549V518.99H0Z" transform="translate(0 561.005)"/></clipPath><clipPath id="b"><path class="a" d="M0-214H279.929V124.445H0Z" transform="translate(0 214)"/></clipPath><clipPath id="d"><rect width="1920" height="1080"/></clipPath></defs><g id="c" class="b"><rect class="j" width="1920" height="1080"/><g transform="translate(0 561.01)"><g class="c" transform="translate(0 -561.005)"><g transform="translate(0 0.972)"><path class="d" d="M0,518.06H229.141C75.11,290.9,512.551-162.947,426.121-559.037L1.005-560V519.023" transform="translate(0 560)"/></g><g transform="translate(1.005 457.309)"><path class="e" d="M0,215.971,1.005,104.315C74.613,8.283,145.88-106.579,201.531-233.455A1076.023,1076.023,0,0,1,1.005,215.971" transform="translate(0 233.455)"/></g><g transform="translate(198.99 0.972)"><path class="f" d="M1.781,219.291C63.265,79.109,105.682-75.747,111.133-236.081l-112.9-.963c32.24,169.08,29.4,321.4,3.544,456.335" transform="translate(1.763 237.044)"/></g><g transform="translate(198.99 0.972)"><path class="g" d="M1.781,219.291C63.265,79.109,105.682-75.747,111.133-236.081l-112.9-.963C30.477-67.964,27.637,84.358,1.781,219.291Z" transform="translate(1.763 237.044)"/></g></g></g><g transform="translate(1720 905)"><g class="h" transform="translate(0 -214)"><g transform="translate(15.815 107.543)"><path class="i" d="M0,79.087,215.087-136" transform="translate(0 136)"/></g><g transform="translate(49.027 15.815)"><path class="i" d="M0,79.087,215.087-136" transform="translate(0 136)"/></g></g></g></g></svg>