<svg xmlns="http://www.w3.org/2000/svg" xmlns:xlink="http://www.w3.org/1999/xlink" viewBox="0 0 1920 1080"><defs><style>.a{fill:none;}.b{clip-path:url(#c);}.c{clip-path:url(#a);}.d{fill:#e9290f;stroke:#e9290f;}.e{fill:#ff6006;stroke:#ff6006;}.f{fill:#fff;}</style><clipPath id="a"><path class="a" d="M0-564.6H725.079V515.8H0Z" transform="translate(0 564.6)"/></clipPath><clipPath id="c"><rect width="1920" height="1080"/></clipPath></defs><g id="b" class="b"><rect class="f" width="1920" height="1080"/><g transform="translate(-425 564.2)"><g class="c" transform="translate(62 -564.6)"><g transform="translate(0.69 5.932)"><path class="d" d="M163.191,512.511H-429.5v-.957C-207.911,358.469-202.25-388.779-396.344-561H195.641c303.214,301.572-206.3,676.967-32.4,1072.554" transform="translate(429.5 561)"/></g><g transform="translate(32.774 6.889)"><path class="e" d="M79.506.457H-20.541V-.5C71.916,452.145-27.1,929.494-209.25,1071.1-27.1,929.494,154.023,452.145,61.566-.5" transform="translate(209.25 0.5)"/></g><g transform="translate(443.088 5.932)"><path class="e" d="M18.584,512.511H-11.775l.05-.957C-185.63,115.967,323.888-259.428,20.675-561H51.034c303.214,301.572-206.3,676.967-32.4,1072.554" transform="translate(48.911 561)"/></g></g></g></g></svg>