<?xml version="1.0" encoding="utf-8"?>
<!-- Generator: Adobe Illustrator 16.0.0, SVG Export Plug-In . SVG Version: 6.00 Build 0)  -->
<!DOCTYPE svg PUBLIC "-//W3C//DTD SVG 1.1//EN" "http://www.w3.org/Graphics/SVG/1.1/DTD/svg11.dtd">
<svg version="1.1" id="Layer_1" xmlns="http://www.w3.org/2000/svg" xmlns:xlink="http://www.w3.org/1999/xlink" x="0px" y="0px"
	 width="270.002px" height="52.843px" viewBox="0 0 270.002 52.843" enable-background="new 0 0 270.002 52.843"
	 xml:space="preserve">
<g>
	<path fill-rule="evenodd" clip-rule="evenodd" fill="#FCFCFD" d="M0,19.202c0-6.399,0-12.799,0-19.2C89.99,0,179.979,0,270.002,0
		c0,17.6,0,35.202,0,52.843c-89.979,0-179.99,0-270.002,0c0-11.094,0-22.22,0-33.346c0.157,0.262,0.314,0.523,0.518,0.861
		c2.578-1.455,5.164-2.915,7.75-4.375c-0.066-0.125-0.133-0.251-0.2-0.377C5.378,16.805,2.689,18.003,0,19.202z M249.947,36.005
		c0.543,0.027,1.086,0.056,1.689,0.086c-0.056,0.443-0.095,0.753-0.134,1.064c0.822,0.068,1.566,0.131,2.671,0.224
		c-1.427,2.357-2.681,4.432-3.936,6.506c0.073,0.098,0.146,0.195,0.22,0.294c0.42-0.271,0.98-0.446,1.235-0.827
		c1.063-1.59,2.031-3.244,3.044-4.87c0.529-0.852,0.483-1.516-0.229-2.355c-1.511-1.779-2.604-3.768-1.516-6.557
		c-0.888-0.347-1.912-1.151-2.684-0.956c-1.303,0.329-2.472,1.25-2.063,3.038c0.057,0.246-0.354,0.599-0.497,0.821
		c-0.955-0.729-1.605-1.342-2.36-1.772c-1.088-0.623-2.626-0.02-3.082,1.104c-0.46,1.131,0.096,2.154,1.479,2.551
		c0.549,0.157,1.155,0.168,1.734,0.156c0.784-0.016,1.479-1.063,2.377-0.049c0.563,0.638,1.377,1.055,2.077,1.57
		c-2.152,0.002-4.307-0.041-6.456,0.037c-0.519,0.02-1.023,0.441-1.534,0.678c0.058,0.188,0.114,0.375,0.172,0.563
		c2.459,0,4.92,0,7.379,0c0.049,0.169,0.098,0.337,0.146,0.506c-0.453,0.194-0.896,0.52-1.362,0.558
		c-1.025,0.086-2.097-0.139-3.086,0.068c-1.309,0.274-2.69,0.63-3.796,1.335c-1.379,0.88-1.443,2.42-0.102,3.297
		c1.916,1.252,4.214,1.858,5.934,3.537c0.148-0.199,0.296-0.398,0.444-0.598c-0.587-0.517-1.173-1.033-1.561-1.375
		c1.04-0.816,2.12-1.485,2.937-2.391c0.338-0.376,0.379-1.472,0.073-1.851c-0.309-0.382-1.422-0.594-1.821-0.331
		c-1.156,0.761-2.13,1.798-3.176,2.727c-0.856,0.27-2.129,0.145-2.318-1.126c-0.211-1.413,1.189-1.71,2.19-1.896
		c1.238-0.23,2.561-0.002,3.803-0.222c0.894-0.157,1.983-0.521,2.475-1.177C250.648,37.925,250.101,36.816,249.947,36.005z
		 M26.869,41.933c0.062,0.067,0.132,0.123,0.211,0.169c-0.134,0.899-0.03,1.907,0.987,1.964c1.09,0.062,2.222-0.319,3.302-0.624
		c0.198-0.056,0.237-0.675,0.306-0.894c-1.146,0.391-2.133,0.727-3.148,1.072c-0.464-1.366-0.214-1.867,0.877-2.323
		c1.418-0.594,2.736-1.502,3.957-2.456c0.438-0.343,0.769-1.307,0.607-1.815c-0.221-0.699-0.839-1.483-1.494-1.794
		c-1.865-0.886-2.192-1.886-0.77-3.456c1.479-1.633,3.423-2.215,5.579-2.23c1.151-0.007,2.216,0.22,2.7,1.383
		c0.496,1.192,0.019,2.312-0.862,3.065c-0.664,0.567-1.597,0.932-2.468,1.117c-1.106,0.236-1.698,0.762-1.783,2.075
		c0.751,0.045,1.502,0.091,2.479,0.149c-1.395,2.353-2.639,4.451-3.884,6.55c0.089,0.103,0.177,0.205,0.266,0.308
		c0.404-0.291,0.93-0.501,1.19-0.889c0.986-1.469,1.845-3.021,2.83-4.49c0.773-1.154,0.942-2.125-0.379-2.74
		c0.811-0.493,1.663-0.885,2.361-1.463c1.293-1.072,1.842-2.854,1.285-4.111c-0.649-1.467-1.968-2.078-3.459-2.118
		c-2.282-0.061-4.375,0.604-6.085,2.195c-1.848,1.721-2.057,3.376-0.692,5.461c-1.656,0-3.28-0.056-4.896,0.033
		c-0.51,0.027-0.998,0.441-1.496,0.679c0.062,0.174,0.124,0.349,0.186,0.523c2.734,0,5.468,0,8.208,0
		c-0.135,1.632-1.385,2.604-3.762,3.046c-0.021-0.095-0.058-0.189-0.058-0.284c-0.009-1.107-0.307-2.015-1.658-1.853
		c-1.602,0.192-3.197,1.829-2.808,2.876c0.139,0.372,0.643,0.703,1.053,0.854C25.942,42.055,26.426,41.937,26.869,41.933z
		 M121.582,14.479c0.858,2.543,2.002,2.959,6.087,2.138c-0.101,0.377-0.188,0.703-0.275,1.029c0.083,0.09,0.167,0.18,0.25,0.27
		c0.44-0.326,1.011-0.564,1.297-0.993c0.98-1.469,1.873-2.996,2.774-4.516c1.001-1.689,0.511-2.646-1.44-2.654
		c-7.427-0.029-14.854-0.026-22.28,0.023c-0.458,0.003-0.914,0.5-1.371,0.767c0.069,0.13,0.137,0.261,0.206,0.392
		c1.72,0,3.441-0.043,5.158,0.033c0.386,0.017,0.752,0.452,1.324,0.82c-0.51,0.238-0.554,0.276-0.599,0.276
		c-1.425,0.016-2.85,0.013-4.274,0.045c-1.852,0.042-2.322,0.81-1.575,2.55c-1.132,0.201-2.396,0.484-2.294,1.896
		c0.099,1.374,1.374,1.375,2.472,1.508c0.495,0.06,1.026,0.376,1.405,0.725c1.106,1.019,2.527,0.955,3.258-0.256
		c-0.819-0.084-1.636-0.167-2.453-0.251c1.055-0.762,2.106-1.089,2.976-1.681c0.467-0.317,0.975-1.22,0.827-1.624
		c-0.171-0.465-1.021-0.868-1.622-0.943c-0.909-0.114-1.855,0.114-2.787,0.12c-0.336,0.002-0.673-0.218-1.009-0.337
		c0.028-0.173,0.056-0.346,0.084-0.519c1.338,0,2.677,0.003,4.016,0c2.144-0.005,2.431-0.273,2.517-2.293c0.863,0,1.724,0,2.699,0
		c-0.411,0.678-0.796,1.235-1.099,1.834c-0.308,0.609-0.574,1.246-0.789,1.894c-0.367,1.103,0.158,1.798,1.149,2.196
		c1.504,0.603,3.261-0.029,4.307-1.52l0.003-0.13c0.215-0.268,0.431-0.536,0.646-0.803
		C121.306,14.477,121.444,14.478,121.582,14.479z M110.467,44.187c0.708-0.232,1.293-0.248,1.414-0.492
		c1.319-2.672,4.087-4.693,3.772-8.123c-1.952-0.332-2.296-1.104-1.271-2.8c0.226-0.373,0.509-0.743,0.848-1.011
		c2.883-2.272,6.133-2.766,9.589-1.733c1.195,0.357,2.282,1.091,2.097,2.64c-0.165,1.387-1.462,2.406-3.053,2.482
		c-0.384,0.019-1.067-0.044-1.104,0.08c-0.386,1.309-1.429,0.717-2.193,0.787c-0.928,0.084-1.88-0.063-2.8,0.057
		c-0.429,0.056-0.807,0.507-1.208,0.779c0.08,0.126,0.161,0.251,0.241,0.377c3.344,0,6.688-0.027,10.031,0.033
		c0.447,0.008,0.885,0.455,1.328,0.699c-0.467,0.244-0.924,0.674-1.402,0.699c-1.62,0.089-3.25-0.018-4.871,0.065
		c-0.498,0.025-0.977,0.42-1.614,0.715c1.019,0.477,1.891,0.613,2.194,1.103c0.312,0.502,0.331,1.751,0.012,1.96
		c-0.639,0.418-1.656,0.604-2.41,0.429c-1.479-0.346-2.049-1.605-1.954-3.359c0.02-0.367-0.308-0.754-0.475-1.132
		c-0.239,0.345-0.58,0.661-0.688,1.043c-0.115,0.407-0.058,0.884,0.009,1.317c0.334,2.162,2.882,3.907,4.938,3.404
		c1.932-0.473,2.494-1.865,1.743-4.204c1.024,0,2.067,0,3.252,0c-0.828,1.387-1.567,2.624-2.306,3.861
		c0.625,0.104,1.202,0.048,1.398-0.255c1.2-1.855,2.36-3.741,3.437-5.671c0.508-0.91,0.22-1.633-0.939-1.754
		c-0.938-0.098-1.88-0.165-3.024-0.264c1.678-1.089,2.555-2.391,2.234-4.208c-0.292-1.66-1.57-2.527-3.025-2.905
		c-3.94-1.024-7.519-0.22-10.491,2.637c-1.369,1.315-1.572,2.99-0.875,4.33c-0.326,0.464-0.603,0.856-0.977,1.388
		c0.821,0.053,1.393,0.09,2.24,0.145C113.203,39.592,111.937,41.72,110.467,44.187z M72.005,9.736
		c0.814-0.489,1.708-0.884,2.427-1.489c1.169-0.985,1.687-2.307,1.263-3.835c-0.411-1.479-1.645-2.123-2.994-2.264
		c-2.615-0.272-4.965,0.499-6.849,2.398c-1.596,1.609-1.728,3.272-0.422,5.195c-2.605,0-5.148-0.035-7.688,0.03
		c-0.503,0.013-0.996,0.411-1.493,0.631c0.06,0.178,0.119,0.356,0.178,0.534c2.25,0,4.5-0.031,6.748,0.025
		c0.464,0.011,1.165,0.229,1.316,0.556c0.174,0.377,0.035,1.169-0.272,1.449c-0.934,0.853-2.013,1.546-3.049,2.312
		c-0.45-0.895-0.664-1.513-1.036-2.015c-0.531-0.715-1.232-1.124-2.174-0.656c-1.122,0.556-1.838,1.375-1.561,2.688
		c0.261,1.235,1.247,1.576,2.358,1.535c0.853-0.032,1.498-0.099,2.179,0.775c0.719,0.924,1.926,1.057,2.856,0.042
		c-0.918-0.391-1.804-0.768-2.688-1.144c0.053-0.145,0.105-0.291,0.158-0.436c1.856-0.667,3.439-2.649,5.798-0.945
		c-0.409,0.74-0.889,1.609-1.369,2.478c0.088,0.096,0.176,0.193,0.264,0.289c0.371-0.274,0.862-0.471,1.094-0.834
		c1.134-1.78,2.171-3.622,3.311-5.397c0.236-0.369,0.765-0.55,1.159-0.817c0.112,0.144,0.224,0.289,0.336,0.433
		c-1.241,2.093-2.482,4.186-3.723,6.278c0.09,0.109,0.181,0.217,0.271,0.326c0.399-0.287,0.918-0.493,1.176-0.875
		c0.931-1.384,1.726-2.861,2.666-4.239C73.069,11.552,73.497,10.481,72.005,9.736z M194.39,15.341
		c-1.059-2.566-1.785-3.2-2.99-2.813c-1.268,0.406-2.063,1.698-1.759,2.854c0.329,1.246,1.636,1.702,3.736,1.304
		c1.321,1.87,2.519,2.13,3.538,0.879c-0.831-0.337-1.695-0.688-2.837-1.151c1.567-0.878,2.71-1.519,3.802-2.131
		c0.807,0.237,1.606,0.472,2.5,0.734c-0.507,0.889-0.986,1.732-1.466,2.575c0.073,0.095,0.146,0.19,0.22,0.286
		c0.384-0.253,0.901-0.42,1.128-0.774c1.141-1.777,2.3-3.554,3.256-5.431c0.454-0.892,0.851-0.836,1.703-0.49
		c-1.3,2.195-2.539,4.291-3.78,6.386c0.087,0.104,0.172,0.208,0.258,0.312c0.406-0.284,0.938-0.483,1.194-0.866
		c0.982-1.47,1.842-3.021,2.813-4.498c0.709-1.079,0.951-2.022-0.314-2.693c0.872-0.59,1.786-1.064,2.517-1.736
		c1.026-0.944,1.554-2.177,1.148-3.596c-0.413-1.448-1.563-2.136-2.948-2.324c-2.411-0.326-4.623,0.333-6.422,1.941
		c-0.764,0.683-1.462,1.683-1.688,2.655c-0.21,0.905,0.246,1.965,0.413,2.978c-2.306,0-4.86,0.031-7.414-0.017
		c-0.851-0.016-1.307,0.219-1.273,1.212c2.258,0,4.517-0.025,6.775,0.022c0.426,0.009,1.103,0.209,1.208,0.492
		c0.155,0.42,0.089,1.186-0.205,1.461C196.567,13.79,195.483,14.509,194.39,15.341z M221.696,43.847
		c0.099,0.12,0.197,0.24,0.296,0.36c0.411-0.298,0.955-0.511,1.21-0.909c1.006-1.57,1.922-3.2,2.869-4.809
		c0.956-1.623,0.711-2.476-0.941-3.285c-1.678-0.821-1.979-1.93-0.736-3.329c1.779-2.006,4.14-2.6,6.705-2.231
		c1.514,0.217,2.137,1.525,1.663,3.031c-0.503,1.597-1.899,2.427-4.271,2.512c-0.302,0.635-0.61,1.28-0.945,1.982
		c0.871,0.056,1.582,0.101,2.577,0.164c-1.375,2.322-2.623,4.431-3.871,6.539c0.118,0.111,0.235,0.222,0.354,0.333
		c0.391-0.322,0.886-0.574,1.154-0.978c0.927-1.389,1.729-2.861,2.668-4.241c0.769-1.131,1.07-2.137-0.161-2.896
		c0.881-0.608,1.804-1.089,2.523-1.78c1.003-0.962,1.509-2.198,1.052-3.618c-0.441-1.371-1.54-2.044-2.87-2.217
		c-2.635-0.344-4.966,0.429-6.885,2.276c-1.692,1.63-1.851,3.288-0.534,5.283c-2.061,0-4.066-0.047-6.066,0.035
		c-0.479,0.02-0.942,0.467-1.413,0.718c0.072,0.165,0.145,0.329,0.217,0.493c3.025,0,6.051,0,9.075,0
		c0.035,0.13,0.07,0.26,0.104,0.39c-0.365,0.144-0.725,0.394-1.097,0.413c-1.08,0.056-2.166-0.015-3.248,0.027
		c-2.12,0.081-4.122,0.603-5.631,2.173c-0.432,0.45-0.736,1.363-0.588,1.93c0.129,0.492,0.934,1.014,1.522,1.142
		c2.488,0.544,4.942-1.486,4.935-4.052c0.944,0,1.889,0,3.021,0C223.431,40.916,222.563,42.382,221.696,43.847z M83.451,37.238
		c0.048,0.152,0.095,0.305,0.143,0.456c-0.379,0.137-0.753,0.372-1.138,0.391c-1.08,0.055-2.165-0.016-3.245,0.026
		c-2.119,0.082-4.107,0.622-5.622,2.182c-0.41,0.422-0.716,1.281-0.575,1.806c0.139,0.515,0.849,1.089,1.413,1.238
		c2.479,0.657,5.103-1.457,5.059-4.041c0.95,0,1.899,0,3.024,0c-0.964,1.625-1.848,3.114-2.73,4.604
		c0.097,0.104,0.193,0.209,0.29,0.313c0.436-0.326,1.008-0.564,1.283-0.994c1.032-1.61,1.965-3.286,2.94-4.934
		c0.708-1.195,0.292-2.584-0.94-3.104c-2.011-0.849-2.248-1.996-0.668-3.589c1.422-1.435,3.221-2,5.211-2.047
		c1.306-0.03,2.504,0.178,2.996,1.594c0.377,1.087-0.321,2.708-1.578,3.365c-0.875,0.457-1.911,0.604-2.946,0.91
		c-0.194,0.505-0.428,1.113-0.672,1.751c0.814,0.062,1.52,0.114,2.464,0.186c-1.376,2.319-2.622,4.416-3.867,6.513
		c0.074,0.102,0.149,0.203,0.223,0.305c0.406-0.271,0.944-0.453,1.196-0.828c1.011-1.508,1.89-3.105,2.905-4.61
		c0.771-1.143,0.766-2.039-0.488-2.673c0.789-0.445,1.6-0.786,2.272-1.305c1.357-1.047,1.935-2.849,1.47-4.2
		c-0.417-1.213-2.067-2.389-3.713-2.138c-1.748,0.268-3.531,0.808-5.09,1.626c-0.936,0.49-1.779,1.646-2.1,2.679
		c-0.306,0.982,0.123,2.192,0.229,3.316c-1.604,0-3.523,0.031-5.439-0.015c-0.855-0.021-1.424,0.165-1.457,1.217
		C77.365,37.238,80.408,37.238,83.451,37.238z M170.469,43.671c-0.591-1.564-0.11-2.018,0.982-2.425
		c1.217-0.453,2.42-1.133,3.407-1.975c1.694-1.444,1.419-3.07-0.513-4.063c-1.769-0.908-2-2.071-0.599-3.533
		c1.52-1.586,3.48-2.267,5.62-2.073c0.87,0.079,2.125,0.564,2.41,1.214c0.331,0.753,0.076,2.112-0.454,2.8
		c-0.581,0.753-1.726,1.321-2.698,1.463c-1.367,0.199-1.605,1.08-2.121,2.065c0.998,0.079,1.788,0.142,2.795,0.221
		c-1.386,2.332-2.625,4.419-3.865,6.506c0.105,0.108,0.211,0.217,0.316,0.325c0.399-0.308,0.912-0.54,1.177-0.938
		c0.953-1.43,1.789-2.938,2.735-4.372c0.729-1.105,1.054-2.095-0.3-2.82c0.806-0.49,1.614-0.863,2.28-1.41
		c1.352-1.11,1.865-2.76,1.348-4.066c-0.626-1.585-1.985-2.179-3.521-2.206c-2.447-0.045-4.652,0.716-6.383,2.545
		c-1.508,1.593-1.628,3.255-0.304,5.106c-1.738,0-3.392-0.054-5.037,0.035c-0.458,0.025-0.895,0.475-1.341,0.729
		c0.063,0.172,0.125,0.344,0.188,0.515c2.713,0,5.427,0,8.352,0c-0.705,2.179-2.453,2.492-3.999,3.172
		c-0.258-1.85-0.623-2.396-1.518-2.373c-1.212,0.031-3.162,1.563-3.108,2.564c0.096,1.775,1.642,1.073,2.431,1.519
		c0.328,0.751,0.691,1.629,1.32,1.907c1.199,0.53,2.426,0.136,3.355-0.813c0.173-0.177,0.024-0.668,0.024-0.767
		C172.41,42.924,171.469,43.286,170.469,43.671z M47.904,39.434c-0.219,0.356-0.742,0.842-0.65,1.132
		c0.241,0.762,0.608,1.594,1.18,2.119c1.669,1.533,3.677,1.925,5.903,1.425c2.51-0.565,3.203-1.584,2.587-4.038
		c0.405-0.149,0.812-0.3,0.96-0.354c0.985,0.407,1.775,0.735,2.689,1.113c-0.533,0.917-1.127,1.94-1.722,2.965
		c0.086,0.091,0.173,0.182,0.26,0.272c0.292-0.158,0.705-0.242,0.857-0.487c1.219-1.96,2.425-3.929,3.544-5.946
		c0.243-0.438,0.243-1.531,0.146-1.558c-0.784-0.215-1.624-0.344-2.432-0.284c-0.317,0.023-0.595,0.592-1.031,1.063
		c1.001,0.074,1.654,0.122,2.345,0.173c-1.151,2.854-1.771,3.196-3.253,1.915c0.755-1.793,0.384-2.614-1.576-3.031
		c-2.198-0.469-4.24,0.234-6.259,1.24c0.452,0.291,0.922,0.439,1.372,0.392c1.556-0.166,3.101-0.431,4.657-0.582
		c0.31-0.03,0.653,0.273,0.981,0.423c-0.16,0.335-0.244,0.753-0.498,0.982c-0.313,0.282-0.755,0.539-1.164,0.577
		c-1.771,0.165-3.55,0.246-5.642,0.378c0.366,0.343,0.636,0.805,0.996,0.89c0.8,0.189,1.657,0.133,2.468,0.291
		c0.494,0.096,0.946,0.406,1.417,0.62c-0.305,0.542-0.476,1.305-0.939,1.586c-1.512,0.92-4.628,0.427-5.921-0.923
		C48.663,41.246,48.431,40.436,47.904,39.434z M193.36,36.909c-0.009,0.155-0.018,0.31-0.026,0.464
		c0.443,0.064,0.896,0.222,1.328,0.176c1.556-0.167,3.1-0.433,4.655-0.589c0.325-0.033,0.682,0.243,1.024,0.376
		c-0.18,0.373-0.278,0.834-0.561,1.097c-0.305,0.282-0.771,0.498-1.187,0.535c-1.728,0.155-3.462,0.231-5.435,0.351
		c0.211,0.271,0.4,0.771,0.691,0.839c0.848,0.2,1.751,0.161,2.604,0.349c0.517,0.113,0.979,0.473,1.467,0.722
		c-0.341,0.521-0.565,1.306-1.043,1.518c-1.724,0.766-3.525,0.567-5.059-0.465c-0.821-0.552-1.337-1.558-2.193-2.607
		c-0.088,0.146-0.599,0.624-0.51,0.924c0.213,0.72,0.579,1.488,1.111,2.001c1.685,1.623,3.731,2.013,6.006,1.511
		c2.501-0.552,3.191-1.568,2.596-4.043c0.407-0.15,0.818-0.302,0.857-0.315c1.133,0.396,1.968,0.69,2.846,0.998
		c-0.554,0.93-1.173,1.968-1.791,3.005c0.084,0.095,0.168,0.189,0.253,0.284c0.307-0.183,0.732-0.291,0.9-0.56
		c1.197-1.914,2.377-3.841,3.476-5.812c0.247-0.443,0.28-1.529,0.195-1.554c-0.778-0.22-1.609-0.369-2.412-0.322
		c-0.33,0.02-0.629,0.569-1.145,1.077c1.07,0.06,1.721,0.097,2.412,0.135c-1.079,2.815-1.72,3.184-3.236,1.973
		c0.697-1.898,0.2-2.847-1.862-3.142C197.235,35.535,195.265,36.13,193.36,36.909z M45.531,16.188
		c-0.422,1.188,0.368,1.205,1.058,1.24c1.686,0.086,3.418-1.114,3.284-2.459c-0.069-0.699-0.632-1.547-1.228-1.939
		c-0.586-0.386-1.496-0.281-2.267-0.393c1.113-2.111,0.68-2.862-1.684-2.889c-1.721-0.02-3.445-0.059-5.162,0.029
		c-0.52,0.027-1.02,0.451-1.529,0.693c0.06,0.155,0.12,0.311,0.18,0.466c1.222,0,2.443,0,3.665,0c1.252,0,2.505,0,4.057,0
		c-0.42,0.833-0.691,1.37-0.978,1.937c-2.234-2.017-6.031-1.49-7.822,0.99c-1.034,1.432-0.662,2.918,1.059,3.292
		c1.306,0.285,2.725,0.057,4.14,0.057c-0.012-0.093,0.024,0.195,0.06,0.484c0.352-0.101,0.834-0.091,1.029-0.323
		c0.467-0.559,0.68-1.37,1.213-1.825c0.776-0.662,1.7-1.222,2.654-1.568c0.335-0.122,0.947,0.517,1.432,0.809
		c-0.35,0.466-0.61,1.158-1.074,1.343C47.033,16.365,46.282,16.188,45.531,16.188z M94.004,14.99
		c-0.467,0.854-0.947,1.732-1.427,2.611c0.09,0.099,0.179,0.197,0.269,0.295c0.388-0.311,0.888-0.55,1.145-0.946
		c0.987-1.524,1.905-3.095,2.833-4.657c0.954-1.605,0.483-2.514-1.389-2.539c-3.149-0.042-6.3-0.044-9.448,0.022
		c-0.494,0.01-0.978,0.471-1.466,0.723c0.066,0.146,0.132,0.291,0.199,0.436c1.769,0,3.539-0.036,5.306,0.024
		c0.472,0.016,1.243,0.228,1.331,0.517c0.142,0.464,0.012,1.263-0.324,1.574c-0.9,0.834-1.97,1.485-3.031,2.251
		c-1.008-2.513-1.77-3.166-2.986-2.761c-1.272,0.424-2.051,1.718-1.727,2.871c0.343,1.221,1.632,1.662,3.757,1.284
		c1.283,1.867,2.567,2.137,3.474,0.877c-0.824-0.347-1.681-0.707-2.803-1.179c1.579-0.874,2.728-1.51,3.793-2.1
		C92.325,14.521,93.101,14.738,94.004,14.99z M178.782,16.222c-0.491,0.997,0.197,1.146,0.95,1.208
		c1.718,0.142,3.405-1.099,3.446-2.515c0.046-1.55-1.096-2.252-3.563-2.19c1.107-2.39,0.712-2.975-2.019-2.981
		c-1.574-0.003-3.148,0.032-4.721-0.014c-0.852-0.025-1.423,0.162-1.438,1.301c2.491,0,4.964,0,7.692,0
		c-0.4,0.762-0.676,1.286-0.971,1.849c-2.037-1.886-5.401-1.622-7.366,0.458c-0.698,0.739-1.484,1.703-0.832,2.575
		c0.557,0.746,1.687,1.291,2.642,1.449c0.923,0.153,1.946-0.302,2.888-0.483c0.055,0.276,0.109,0.55,0.164,0.824
		c0.344-0.116,0.806-0.132,1.007-0.37c0.439-0.518,0.636-1.276,1.132-1.705c0.774-0.669,1.665-1.285,2.612-1.634
		c0.36-0.132,1.015,0.537,1.535,0.841c-0.416,0.462-0.751,1.109-1.27,1.336C180.144,16.402,179.435,16.222,178.782,16.222z
		 M225.876,17.565c0.105,0.108,0.212,0.215,0.317,0.323c0.381-0.311,0.868-0.552,1.124-0.944c0.961-1.479,1.854-3.002,2.759-4.518
		c1.049-1.756,0.563-2.66-1.481-2.678c-3.095-0.026-6.191-0.039-9.285,0.026c-0.488,0.01-0.968,0.456-1.45,0.7
		c0.067,0.153,0.135,0.307,0.202,0.46c1.813,0,3.628-0.016,5.441,0.005c1.31,0.015,1.857,0.912,0.999,1.889
		c-0.856,0.977-2.046,1.662-3.185,2.549c-0.922-2.47-1.727-3.203-2.87-2.878c-1.267,0.36-2.147,1.659-1.884,2.777
		c0.313,1.329,1.558,1.791,3.819,1.419c1.247,1.825,2.339,2.079,3.468,0.906c-0.815-0.36-1.669-0.737-2.866-1.267
		c2.377-1.147,4.081-2.751,6.375-1.291C226.903,15.819,226.39,16.692,225.876,17.565z M244.404,19.944
		c-0.543,0.23-0.759,0.318-0.973,0.413c-1.154,0.51-2.413,0.665-3.252-0.326c-0.468-0.552-0.637-1.674-0.438-2.402
		c0.326-1.191,1.438-1.654,2.67-1.667c0.885-0.01,1.774-0.055,2.653,0.018c0.536,0.044,1.066,0.259,1.573,0.461
		c0.063,0.025,0.007,0.641-0.064,0.657c-0.596,0.129-1.207,0.214-1.816,0.241c-0.221,0.01-0.454-0.259-0.676-0.25
		c-0.3,0.013-0.595,0.17-0.892,0.265c0.013,0.142,0.025,0.283,0.038,0.424c0.795,0.182,1.584,0.468,2.388,0.52
		c1.192,0.076,2.011-0.564,2.135-1.768c0.135-1.31-0.835-1.677-1.886-1.745c-1.127-0.073-2.266,0.035-3.391-0.048
		c-0.434-0.032-0.846-0.371-1.268-0.569c0.419-0.289,0.827-0.806,1.26-0.828c1.863-0.092,3.736-0.008,5.604-0.05
		c1.33-0.031,1.278-1.117,1.371-2.021c0.093-0.914-0.218-1.537-1.283-1.531c-2.115,0.013-4.23-0.032-6.343,0.037
		c-0.383,0.012-0.751,0.45-1.126,0.692c0.074,0.122,0.149,0.244,0.225,0.365c2.111,0,4.225-0.034,6.334,0.03
		c0.398,0.012,0.783,0.417,1.174,0.642c-0.409,0.2-0.812,0.558-1.228,0.574c-1.67,0.066-3.344,0.015-5.015,0.031
		c-1.608,0.016-2.104,0.601-2.107,2.133c-0.002,0.517-0.263,1.142-0.612,1.53c-1.287,1.425-1.532,3.428-0.467,4.705
		c1.008,1.207,3.686,1.489,5.039,0.491C244.209,20.834,244.22,20.477,244.404,19.944z M255.063,11.939
		c-0.158,0.112-0.317,0.225-0.477,0.338c-0.072,0.17-0.188,0.334-0.211,0.511c-0.247,1.906,1,3.878,3.001,4.77
		c1.932,0.86,5.264,0.466,6.268-0.752c0.656-0.796,0.45-1.589-0.373-1.96c-0.864-0.39-1.871-0.467-2.818-0.668
		c-0.639-0.135-1.282-0.248-1.924-0.37c0.031-0.17,0.063-0.34,0.093-0.511c1.801,0,3.602,0.008,5.402-0.003
		c1.251-0.007,1.938-0.727,1.965-2.007c0.026-1.3-0.855-1.529-1.861-1.536c-2.754-0.021-5.509-0.044-8.261,0.027
		c-0.493,0.013-0.975,0.47-1.462,0.722c0.066,0.145,0.133,0.29,0.199,0.434c3.096,0,6.191-0.022,9.286,0.031
		c0.359,0.006,0.712,0.432,1.067,0.664c-0.356,0.16-0.71,0.446-1.07,0.458c-1.622,0.05-3.259-0.095-4.861,0.083
		c-0.613,0.067-1.151,0.809-1.725,1.243c0.413,0.536,0.721,1.275,1.265,1.554c0.66,0.338,1.522,0.271,2.293,0.409
		c0.674,0.121,1.34,0.281,2.009,0.424c0.012,0.223,0.023,0.446,0.035,0.668c-0.892,0.22-1.772,0.553-2.677,0.64
		C256.704,17.442,255.352,15.27,255.063,11.939z M187.966,9.811c0.889-0.617,1.749-1.089,2.454-1.733
		c1.045-0.955,1.475-2.204,1.104-3.611c-0.373-1.414-1.502-1.976-2.807-2.285c-2.584-0.612-6.514,1.045-7.821,3.346
		c-0.634,1.116-0.836,2.276-0.137,3.491c0.309,0.535,0.459,1.161,0.794,2.041c1.76,0,3.881,0,6.246,0
		c-1.387,2.334-2.625,4.421-3.864,6.507c0.107,0.11,0.216,0.221,0.324,0.332c0.394-0.307,0.898-0.539,1.161-0.933
		c0.951-1.427,1.781-2.936,2.734-4.362C188.859,11.548,189.255,10.593,187.966,9.811z M259.967,40.143
		c0.028-0.184,0.057-0.367,0.085-0.552c1.76,0,3.518,0.008,5.277-0.002c1.329-0.007,2.094-0.767,2.078-2.063
		c-0.015-1.296-0.933-1.476-1.927-1.481c-2.706-0.017-5.414-0.043-8.119,0.028c-0.502,0.013-0.992,0.464-1.488,0.713
		c0.064,0.147,0.128,0.295,0.192,0.443c3.048,0,6.097-0.022,9.145,0.027c0.386,0.006,0.767,0.385,1.15,0.591
		c-0.383,0.185-0.76,0.515-1.148,0.529c-1.621,0.061-3.258-0.08-4.865,0.085c-0.572,0.059-1.428,0.717-1.512,1.21
		c-0.079,0.464,0.579,1.278,1.113,1.563c0.652,0.348,1.516,0.294,2.285,0.432c0.675,0.12,1.347,0.267,2.38,0.474
		c-1.728,1.673-3.422,1.419-5.013,1.098c-1.549-0.313-2.703-1.839-2.837-3.221c-0.05-0.52-0.24-1.026-0.367-1.539
		c-0.141,0.023-0.28,0.048-0.421,0.071c-0.06,0.177-0.154,0.349-0.174,0.529c-0.219,1.967,0.875,3.76,2.856,4.708
		c1.871,0.896,5.175,0.607,6.3-0.584c0.742-0.785,0.618-1.629-0.292-2.069c-0.81-0.392-1.773-0.472-2.675-0.657
		C261.321,40.338,260.642,40.252,259.967,40.143z M54.553,9.823c0.919-0.628,1.92-1.098,2.638-1.842
		c2.165-2.246,1.249-5.102-1.782-5.805c-2.549-0.592-6.412,0.986-7.753,3.23c-0.678,1.134-1.027,2.328-0.215,3.602
		c0.332,0.519,0.52,1.129,0.905,1.996c1.68,0,3.763,0,6.168,0c-1.404,2.363-2.658,4.473-3.912,6.583
		c0.104,0.106,0.208,0.213,0.311,0.32c0.396-0.305,0.905-0.535,1.166-0.929c1.004-1.513,1.888-3.105,2.896-4.615
		C55.717,11.25,55.669,10.398,54.553,9.823z M20.524,40.842c-0.688,1.158-1.25,2.104-1.813,3.051c0.082,0.1,0.163,0.199,0.245,0.299
		c0.391-0.252,0.921-0.415,1.15-0.771c1.088-1.691,2.13-3.415,3.118-5.167c0.764-1.354,0.273-2.192-1.261-2.209
		c-2.606-0.028-5.214-0.047-7.818,0.028c-0.475,0.013-0.936,0.491-1.403,0.755c3.974,0.553,3.974,0.553,3.894,1.665
		c-1.729,0.667-3.338,1.16-4.818,1.91c-0.789,0.399-1.265,1.301-0.725,2.273c0.517,0.932,1.344,1.168,2.389,0.967
		c2.026-0.389,3.167-1.795,4.079-3.527C18.54,40.355,19.439,40.576,20.524,40.842z M22.336,10.95
		c0.041,0.119,0.082,0.239,0.123,0.358c-0.353,0.167-0.698,0.458-1.059,0.48c-1.078,0.064-2.164-0.003-3.245,0.029
		c-2.12,0.064-4.129,0.565-5.642,2.122c-0.457,0.47-0.769,1.462-0.594,2.051c0.15,0.504,1.056,1.015,1.687,1.105
		c2.513,0.356,4.694-1.558,4.774-4.071c0.939,0,1.877,0,2.96,0c-0.96,1.622-1.836,3.101-2.923,4.937
		c0.767-0.279,1.346-0.306,1.497-0.574c1.323-2.352,3.036-4.511,3.976-7.178c-0.584-0.207-0.9-0.412-1.217-0.417
		c-2.704-0.036-5.41-0.07-8.113-0.006c-0.363,0.008-0.714,0.564-1.071,0.867c0.059,0.099,0.117,0.198,0.176,0.297
		C16.555,10.95,19.446,10.95,22.336,10.95z M108.462,40.899c-0.651,1.087-1.224,2.042-1.797,2.998
		c0.584,0.053,1.151-0.064,1.372-0.405c1.119-1.731,2.187-3.499,3.195-5.296c0.709-1.266,0.202-2.128-1.238-2.148
		c-2.607-0.036-5.217-0.05-7.823,0.024c-0.511,0.014-1.01,0.47-1.515,0.722c4.057,0.655,4.057,0.655,3.905,1.744
		c-1.709,0.636-3.317,1.05-4.708,1.845c-0.534,0.305-0.914,1.558-0.756,2.237c0.232,0.999,1.348,1.422,2.282,0.981
		c1.201-0.565,2.629-1.198,3.285-2.231c0.8-1.26,1.543-1.201,2.621-0.86C107.612,40.613,107.936,40.725,108.462,40.899z
		 M151.948,17.598c0.09,0.103,0.18,0.206,0.27,0.309c0.443-0.318,1.03-0.545,1.303-0.972c1.059-1.652,2.027-3.363,3.013-5.062
		c0.879-1.514,0.54-2.102-1.265-2.123c-2.312-0.028-4.626-0.051-6.936,0.027c-0.521,0.018-1.027,0.458-1.541,0.703
		c0.059,0.159,0.118,0.317,0.177,0.475c2.89,0,5.78,0,8.67,0c0.04,0.125,0.08,0.25,0.12,0.374c-0.351,0.161-0.696,0.44-1.055,0.461
		c-1.079,0.062-2.165-0.012-3.246,0.03c-2.007,0.078-3.877,0.561-5.451,1.912c-0.724,0.621-1.401,1.416-0.806,2.246
		c0.429,0.599,1.425,1.094,2.175,1.104c2.538,0.035,4.121-1.545,4.343-4.098c0.908,0,1.823,0,2.967,0
		C153.721,14.61,152.834,16.104,151.948,17.598z M160.681,43.85c0.066,0.099,0.132,0.197,0.199,0.296
		c0.392-0.219,0.935-0.34,1.149-0.673c1.117-1.735,2.19-3.502,3.199-5.303c0.719-1.284,0.221-2.103-1.261-2.123
		c-2.608-0.034-5.219-0.048-7.826,0.024c-0.487,0.014-0.961,0.471-1.441,0.723c0.069,0.146,0.139,0.29,0.208,0.436
		c0.834,0,1.667,0,2.502,0c1.202,0,1.307,0.745,1.245,1.288c-1.751,0.64-3.334,1.084-4.786,1.797
		c-0.864,0.424-1.346,1.385-0.811,2.393c0.5,0.94,1.387,1.149,2.415,0.929c1.947-0.416,3.144-1.695,4.011-3.542
		c0.981,0.262,1.926,0.514,2.991,0.799C161.791,42.019,161.236,42.935,160.681,43.85z M131.167,36.551
		c0.045,0.188,0.089,0.374,0.134,0.561c0.457,0.04,0.913,0.112,1.37,0.114c2.703,0.012,5.407-0.014,8.11,0.032
		c0.319,0.005,0.633,0.368,0.949,0.564c-0.286,0.191-0.593,0.573-0.854,0.544c-1.486-0.166-3.081,0.978-4.483-0.377
		c-0.201-0.193-0.669-0.216-0.989-0.166c-2.22,0.351-3.991,1.472-4.962,3.493c-0.288,0.601-0.109,1.731,0.306,2.277
		c0.424,0.559,1.384,0.749,2.146,0.983c0.188,0.059,0.516-0.337,0.969-0.658c-2.331-0.396-3.107-1.248-2.217-2.433
		c0.86-1.145,2.209-1.952,3.435-2.77c0.287-0.19,0.946,0.18,1.435,0.292c-0.184,0.418-0.343,0.85-0.56,1.249
		c-0.16,0.296-0.396,0.55-0.598,0.822c0.074,0.13,0.149,0.259,0.223,0.389c0.322-0.173,0.724-0.274,0.953-0.53
		c1.104-1.228,2.339-2.032,4.273-1.574c-0.916,1.566-1.771,3.029-2.626,4.493c0.548,0.046,1.009-0.091,1.214-0.398
		c1.009-1.509,2.006-3.031,2.9-4.61c1.036-1.83,0.475-2.768-1.655-2.803c-2.654-0.045-5.309-0.038-7.962,0.012
		C132.171,36.067,131.671,36.379,131.167,36.551z M65.611,37.738c-0.597,1.146-2,2.58-1.016,4.281
		c0.958,1.655,2.712,1.14,4.427,0.679c-0.202,0.54-0.333,0.891-0.463,1.242c0.104,0.086,0.207,0.173,0.31,0.259
		c0.361-0.301,0.823-0.537,1.064-0.915c1.058-1.652,2.073-3.334,3.061-5.029c0.882-1.512,0.509-2.141-1.237-2.221
		c-1.946-0.089-3.892-0.224-5.839-0.254c-0.312-0.005-0.785,0.375-0.896,0.682C64.935,36.699,65.295,37.101,65.611,37.738z
		 M207.521,37.629c-2.001,3.338-2.582,6.055,3.207,5.305c-0.096,0.363-0.175,0.667-0.254,0.97c0.085,0.093,0.17,0.185,0.254,0.276
		c0.38-0.312,0.869-0.553,1.121-0.945c1.028-1.605,2.001-3.248,2.964-4.895c0.985-1.685,0.647-2.234-1.321-2.309
		c-1.89-0.071-3.776-0.22-5.666-0.253c-0.315-0.006-0.875,0.383-0.898,0.629C206.895,36.753,207.259,37.136,207.521,37.629z
		 M135.098,11.149c-1.394,2.278-2.667,4.36-3.94,6.441c0.095,0.105,0.191,0.21,0.287,0.316c0.413-0.292,0.951-0.5,1.215-0.893
		c1.013-1.503,1.908-3.085,2.905-4.6c0.58-0.882,0.588-1.669,0.083-2.599c-1.119-2.059-0.485-4.804,1.507-5.933
		c0.745-0.422,1.867-0.472,2.713-0.265c0.311,0.076,0.321,1.383,0.531,2.447c0.26-0.216,0.706-0.405,0.84-0.725
		c0.717-1.708-0.649-3.525-2.503-3.238c-0.88,0.137-1.838,0.507-2.519,1.065c-2.062,1.69-2.59,3.917-1.844,6.208
		c-0.526,0.483-0.935,0.859-1.525,1.401C133.698,10.917,134.202,11.001,135.098,11.149z M252.142,9.469
		c0.025-0.079,0.051-0.157,0.075-0.236c-1.538-1.255-3.076-2.511-4.542-3.707c0.315-0.567,0.522-0.854,0.618-1.174
		c0.022-0.074-0.458-0.408-0.495-0.375c-0.919,0.788-1.211-0.264-1.749-0.572c-0.759-0.434-1.475-1.034-2.292-1.256
		c-1.187-0.321-2.178,0.3-2.593,1.407c-0.417,1.109,0.306,1.918,1.26,2.344c0.6,0.268,1.414,0.488,1.989,0.298
		c2.104-0.695,3.361,0.433,4.616,1.798c0.424,0.46,0.962,0.862,1.522,1.134C251.024,9.361,251.607,9.365,252.142,9.469z
		 M159.641,31.86c0.311-0.633,0.496-0.931,0.583-1.256c0.017-0.063-0.477-0.366-0.52-0.327c-0.869,0.81-1.131-0.223-1.625-0.517
		c-0.71-0.422-1.374-0.961-2.133-1.254c-1.108-0.429-2.536,0.328-2.874,1.38c-0.293,0.916,0.439,2.092,1.622,2.447
		c0.551,0.166,1.233,0.346,1.728,0.167c2.05-0.743,3.269,0.393,4.497,1.72c0.458,0.494,1.035,0.923,1.636,1.224
		c0.456,0.228,1.037,0.206,1.562,0.295c0.019-0.083,0.037-0.166,0.056-0.25C162.653,34.272,161.133,33.056,159.641,31.86z
		 M22.165,35.809c0.036-0.093,0.071-0.187,0.106-0.279c-1.535-1.259-3.07-2.518-4.388-3.599c0.201-0.745,0.297-1.102,0.393-1.458
		c-0.415,0-0.829,0-0.986,0c-1.215-0.736-2.228-1.557-3.386-1.992c-1.142-0.429-2.185,0.188-2.621,1.314
		c-0.458,1.186,0.26,2.014,1.308,2.432c0.614,0.245,1.435,0.464,1.997,0.253c2.035-0.762,3.167,0.47,4.383,1.683
		c0.449,0.448,0.94,0.895,1.495,1.183C20.975,35.61,21.594,35.663,22.165,35.809z M89.859,5.578c0.26-0.603,0.433-0.949,0.536-1.315
		c0.012-0.043-0.485-0.321-0.53-0.276c-0.807,0.818-1.045-0.17-1.501-0.449c-0.749-0.457-1.456-1.023-2.261-1.336
		c-1.064-0.414-2.436,0.321-2.776,1.324c-0.33,0.972,0.313,2.087,1.52,2.489c0.5,0.166,1.127,0.352,1.579,0.193
		c2.212-0.779,3.541,0.465,4.879,1.889c0.456,0.486,1.084,0.842,1.691,1.143c0.375,0.186,0.857,0.154,1.291,0.219
		c0.024-0.085,0.048-0.171,0.071-0.256C92.839,7.978,91.32,6.754,89.859,5.578z M223.126,5.591c0.249-0.629,0.418-0.977,0.506-1.344
		c0.017-0.07-0.391-0.334-0.418-0.309c-0.992,0.911-1.274-0.303-1.844-0.61c-0.687-0.37-1.317-0.876-2.04-1.137
		c-1.071-0.386-2.487,0.337-2.755,1.356c-0.321,1.224,0.342,2.014,1.402,2.408c0.621,0.231,1.426,0.43,2.004,0.229
		c1.945-0.676,3.092,0.39,4.262,1.619c0.47,0.492,1.014,0.958,1.609,1.273c0.487,0.258,1.103,0.277,1.66,0.402
		c0.027-0.095,0.055-0.19,0.082-0.285C226.075,7.968,224.556,6.744,223.126,5.591z M141.641,35.964
		c0.083-0.142,0.165-0.282,0.248-0.424c-1.535-1.246-3.069-2.492-4.453-3.616c0.186-0.703,0.289-1.096,0.393-1.488
		c-0.408,0.032-0.817,0.064-0.893,0.07c-1.289-0.774-2.303-1.587-3.459-2.021c-1.141-0.427-2.182,0.188-2.606,1.316
		c-0.438,1.162,0.221,2.044,1.298,2.412c0.759,0.261,1.709,0.464,2.429,0.236c1.538-0.487,2.497,0.104,3.389,1.205
		c0.306,0.378,0.666,0.752,1.079,0.994C139.896,35.137,140.779,35.531,141.641,35.964z M248.771,17.55
		c0.062,0.091,0.122,0.183,0.183,0.274c0.366-0.154,0.893-0.204,1.072-0.479c1.205-1.844,2.385-3.709,3.47-5.626
		c0.437-0.771,0.188-1.575-0.705-1.936c-1.019-0.412-2.423,0.074-2.671,0.842c0.737,0.161,1.475,0.322,2.537,0.555
		C251.286,13.428,250.028,15.489,248.771,17.55z M23.003,17.548c0.104,0.117,0.208,0.235,0.313,0.353
		c0.377-0.277,0.871-0.479,1.111-0.845c1.072-1.638,2.075-3.321,3.097-4.991c0.537-0.876,0.563-1.72-0.438-2.236
		c-0.986-0.508-2.112,0.001-2.514,1.032c0.657,0.066,1.308,0.131,2.316,0.233C25.491,13.416,24.247,15.481,23.003,17.548z
		 M156.291,17.58c0.068,0.1,0.137,0.199,0.206,0.299c0.421-0.263,0.988-0.43,1.238-0.807c1.087-1.634,2.083-3.329,3.109-5.003
		c0.543-0.886,0.549-1.729-0.447-2.247c-0.976-0.508-2.107,0.011-2.498,1.032c0.655,0.075,1.307,0.149,2.306,0.263
		C158.8,13.437,157.546,15.508,156.291,17.58z"/>
	<path fill-rule="evenodd" clip-rule="evenodd" fill="#1E2248" d="M0,19.202c2.689-1.198,5.378-2.396,8.067-3.595
		c0.067,0.125,0.133,0.251,0.2,0.377c-2.586,1.46-5.172,2.92-7.75,4.375c-0.203-0.338-0.36-0.6-0.518-0.861
		C0,19.399,0,19.3,0,19.202z"/>
	<path fill-rule="evenodd" clip-rule="evenodd" fill="#131840" d="M121.168,14.476c-0.215,0.268-0.431,0.536-0.646,0.802
		c-0.957-1.137-1.914-2.274-2.973-3.532c-0.415,0.686-0.785,1.104-0.933,1.589c-0.211,0.691-0.259,1.432-0.377,2.151
		c0.784,0.113,1.568,0.315,2.351,0.312c0.644-0.003,1.286-0.25,1.929-0.389c-1.046,1.491-2.803,2.123-4.307,1.52
		c-0.992-0.397-1.516-1.093-1.149-2.196c0.215-0.647,0.481-1.285,0.789-1.894c0.303-0.599,0.688-1.156,1.099-1.834
		c-0.975,0-1.835,0-2.699,0c-0.086,2.02-0.374,2.288-2.517,2.293c-1.338,0.003-2.677,0-4.016,0
		c-0.028,0.173-0.057,0.346-0.084,0.519c0.336,0.119,0.673,0.339,1.009,0.337c0.932-0.006,1.878-0.234,2.787-0.12
		c0.601,0.076,1.451,0.478,1.622,0.943c0.148,0.403-0.36,1.306-0.827,1.624c-0.87,0.592-1.921,0.919-2.976,1.681
		c0.816,0.083,1.633,0.167,2.453,0.251c-0.731,1.21-2.152,1.274-3.258,0.256c-0.378-0.349-0.91-0.666-1.405-0.725
		c-1.098-0.133-2.373-0.134-2.472-1.508c-0.101-1.413,1.162-1.696,2.294-1.896c-0.747-1.74-0.277-2.508,1.575-2.55
		c1.425-0.032,2.85-0.029,4.274-0.045c0.045,0,0.089-0.039,0.599-0.276c-0.571-0.369-0.938-0.803-1.324-0.82
		c-1.716-0.076-3.438-0.033-5.158-0.033c-0.069-0.13-0.137-0.261-0.206-0.392c0.457-0.267,0.912-0.764,1.371-0.767
		c7.427-0.049,14.854-0.052,22.28-0.023c1.951,0.008,2.441,0.965,1.44,2.654c-0.901,1.52-1.794,3.047-2.774,4.516
		c-0.286,0.429-0.856,0.667-1.297,0.993c-0.083-0.09-0.167-0.18-0.25-0.27c0.087-0.326,0.174-0.652,0.275-1.029
		c-4.085,0.821-5.229,0.405-6.087-2.138c-0.004-1.249,0.317-1.782,1.769-1.274c1.541,0.539,2.942-0.561,3.09-2.197
		c-2.723,0-5.438,0-8.232,0C119.239,12.216,120.204,13.346,121.168,14.476z M127.65,10.988c0.017,2.255-1.433,3.292-4.909,3.565
		c0.97,1.444,2.125,1.77,4.044,1.141c2.364-0.774,4.018-2.738,3.912-4.706C129.73,10.988,128.759,10.988,127.65,10.988z
		 M107.203,15.134c0.702,0.622,1.249,1.489,1.914,1.593c0.767,0.12,1.658-0.392,2.455-0.725c0.239-0.099,0.344-0.517,0.511-0.789
		c-0.277-0.147-0.561-0.432-0.829-0.419C109.964,14.857,108.679,15.002,107.203,15.134z"/>
	<path fill-rule="evenodd" clip-rule="evenodd" fill="#131840" d="M110.467,44.187c1.469-2.467,2.736-4.595,4.097-6.881
		c-0.848-0.055-1.419-0.092-2.24-0.145c0.374-0.531,0.65-0.924,0.977-1.388c-0.698-1.34-0.494-3.015,0.875-4.33
		c2.972-2.856,6.551-3.661,10.491-2.637c1.455,0.378,2.733,1.245,3.025,2.905c0.32,1.817-0.557,3.119-2.234,4.208
		c1.144,0.099,2.085,0.166,3.024,0.264c1.159,0.121,1.448,0.844,0.939,1.754c-1.077,1.93-2.237,3.815-3.437,5.671
		c-0.196,0.303-0.772,0.359-1.398,0.255c0.739-1.237,1.478-2.475,2.306-3.861c-1.185,0-2.228,0-3.252,0
		c0.751,2.339,0.189,3.731-1.743,4.204c-2.055,0.503-4.604-1.242-4.938-3.404c-0.067-0.434-0.124-0.91-0.009-1.317
		c0.108-0.382,0.449-0.698,0.688-1.043c0.167,0.378,0.495,0.765,0.475,1.132c-0.095,1.754,0.476,3.014,1.954,3.359
		c0.753,0.176,1.771-0.011,2.41-0.429c0.319-0.209,0.3-1.458-0.012-1.96c-0.304-0.489-1.176-0.626-2.194-1.103
		c0.637-0.295,1.116-0.689,1.614-0.715c1.621-0.083,3.251,0.023,4.871-0.065c0.479-0.025,0.936-0.455,1.402-0.699
		c-0.443-0.244-0.881-0.691-1.328-0.699c-3.343-0.061-6.687-0.033-10.031-0.033c-0.08-0.126-0.161-0.251-0.241-0.377
		c0.401-0.272,0.779-0.724,1.208-0.779c0.919-0.12,1.872,0.027,2.8-0.057c0.764-0.07,1.807,0.521,2.193-0.787
		c0.037-0.124,0.72-0.062,1.104-0.08c1.591-0.076,2.888-1.096,3.053-2.482c0.185-1.549-0.902-2.282-2.097-2.64
		c-3.457-1.032-6.706-0.539-9.589,1.733c-0.339,0.268-0.623,0.638-0.848,1.011c-1.025,1.695-0.681,2.468,1.271,2.8
		c0.315,3.43-2.454,5.451-3.772,8.123C111.76,43.938,111.176,43.954,110.467,44.187z"/>
	<path fill-rule="evenodd" clip-rule="evenodd" fill="#141941" d="M72.005,9.736c1.492,0.745,1.064,1.816,0.238,3.027
		c-0.94,1.378-1.734,2.855-2.666,4.239c-0.258,0.382-0.777,0.588-1.176,0.875c-0.09-0.109-0.181-0.217-0.271-0.326
		c1.241-2.093,2.482-4.186,3.723-6.278c-0.112-0.145-0.224-0.289-0.336-0.433c-0.394,0.268-0.922,0.449-1.159,0.817
		c-1.14,1.776-2.177,3.618-3.311,5.397c-0.231,0.363-0.723,0.56-1.094,0.834c-0.088-0.096-0.176-0.193-0.264-0.289
		c0.48-0.869,0.96-1.738,1.369-2.478c-2.358-1.704-3.941,0.277-5.798,0.945c-0.053,0.145-0.105,0.291-0.158,0.436
		c0.885,0.376,1.77,0.753,2.688,1.144c-0.93,1.015-2.137,0.882-2.856-0.042c-0.681-0.874-1.326-0.808-2.179-0.775
		c-1.111,0.042-2.097-0.3-2.358-1.535c-0.277-1.313,0.438-2.131,1.561-2.688c0.942-0.468,1.643-0.06,2.174,0.656
		c0.372,0.501,0.586,1.12,1.036,2.015c1.037-0.766,2.116-1.459,3.049-2.312c0.307-0.28,0.446-1.072,0.272-1.449
		c-0.151-0.327-0.852-0.544-1.316-0.556c-2.248-0.056-4.498-0.025-6.748-0.025c-0.06-0.178-0.119-0.356-0.178-0.534
		c0.497-0.22,0.99-0.618,1.493-0.631c2.54-0.065,5.083-0.03,7.688-0.03c-1.306-1.923-1.174-3.586,0.422-5.195
		c1.884-1.899,4.234-2.67,6.849-2.398c1.35,0.141,2.583,0.784,2.994,2.264c0.424,1.528-0.094,2.851-1.263,3.835
		C73.713,8.852,72.819,9.247,72.005,9.736z M70.023,8.882c1.817,0.088,3.292-0.248,4.23-1.745c1.244-1.988,0.294-3.989-2.025-3.817
		c-1.69,0.125-3.437,0.666-4.958,1.423c-0.81,0.403-1.306,1.612-1.711,2.557c-0.139,0.324,0.304,1.183,0.696,1.392
		c0.949,0.504,2.033,0.75,3.047,1.14c0.424,0.163,0.811,0.424,1.215,0.641c0.083-0.052,0.166-0.104,0.248-0.156
		C70.571,9.939,70.375,9.563,70.023,8.882z M65.669,10.978c0.028,0.461,0.092,0.894,0.07,1.322c-0.021,0.416-0.13,0.827-0.197,1.217
		c2.02,0.771,3.299-0.191,3.477-2.539C67.903,10.978,66.79,10.978,65.669,10.978z M59.748,15.917
		c0.176-0.275,0.353-0.551,0.529-0.826c-0.6-0.538-1.2-1.076-1.801-1.615c-0.313,0.452-0.625,0.904-0.938,1.356
		C58.275,15.193,59.012,15.555,59.748,15.917z"/>
	<path fill-rule="evenodd" clip-rule="evenodd" fill="#151A41" d="M194.39,15.341c1.094-0.832,2.178-1.551,3.112-2.429
		c0.294-0.276,0.36-1.042,0.205-1.461c-0.105-0.282-0.782-0.483-1.208-0.492c-2.259-0.047-4.518-0.022-6.775-0.022
		c-0.033-0.994,0.423-1.229,1.273-1.212c2.554,0.048,5.108,0.017,7.414,0.017c-0.167-1.013-0.623-2.073-0.413-2.978
		c0.226-0.972,0.924-1.972,1.688-2.655c1.799-1.609,4.011-2.268,6.422-1.941c1.386,0.188,2.535,0.876,2.948,2.324
		c0.405,1.419-0.122,2.652-1.148,3.596c-0.73,0.672-1.645,1.146-2.517,1.736c1.266,0.67,1.023,1.614,0.314,2.693
		c-0.971,1.477-1.83,3.028-2.813,4.498c-0.256,0.383-0.788,0.583-1.194,0.866c-0.086-0.104-0.171-0.208-0.258-0.312
		c1.241-2.095,2.48-4.19,3.78-6.386c-0.853-0.347-1.249-0.402-1.703,0.49c-0.956,1.877-2.115,3.654-3.256,5.431
		c-0.227,0.354-0.744,0.521-1.128,0.774c-0.073-0.095-0.146-0.19-0.22-0.286c0.479-0.843,0.959-1.686,1.466-2.575
		c-0.894-0.262-1.693-0.498-2.5-0.734c-1.092,0.613-2.234,1.253-3.802,2.131c1.142,0.463,2.006,0.813,2.837,1.151
		c-1.02,1.251-2.217,0.991-3.538-0.879c-2.101,0.398-3.407-0.058-3.736-1.304c-0.305-1.156,0.491-2.448,1.759-2.854
		C192.604,12.141,193.331,12.774,194.39,15.341z M203.452,8.864c1.802,0.133,3.256-0.288,4.17-1.806
		c1.164-1.934,0.217-3.757-2.029-3.776c-1.059-0.009-2.252,0.021-3.147,0.488c-1.244,0.648-2.396,1.608-3.331,2.662
		c-0.547,0.616-0.645,1.744,0.415,2.264c0.929,0.456,1.951,0.718,2.916,1.107c0.47,0.189,0.901,0.47,1.707,0.898
		C203.885,9.999,203.712,9.544,203.452,8.864z M198.839,13.54c1.978,0.742,3.264-0.23,3.418-2.563c-1.114,0-2.226,0-3.251,0
		C198.95,11.832,198.897,12.64,198.839,13.54z M193.029,15.903c0.163-0.217,0.326-0.435,0.488-0.651
		c-0.564-0.607-1.128-1.214-1.692-1.821c-0.347,0.478-0.692,0.955-1.038,1.432C191.534,15.21,192.282,15.557,193.029,15.903z"/>
	<path fill-rule="evenodd" clip-rule="evenodd" fill="#141941" d="M221.696,43.847c0.867-1.465,1.734-2.931,2.688-4.543
		c-1.133,0-2.077,0-3.021,0c0.008,2.565-2.446,4.596-4.935,4.052c-0.589-0.128-1.394-0.649-1.522-1.142
		c-0.148-0.566,0.156-1.479,0.588-1.93c1.509-1.57,3.511-2.092,5.631-2.173c1.082-0.042,2.168,0.028,3.248-0.027
		c0.372-0.02,0.731-0.27,1.097-0.413c-0.034-0.13-0.069-0.26-0.104-0.39c-3.024,0-6.05,0-9.075,0
		c-0.072-0.164-0.145-0.328-0.217-0.493c0.471-0.251,0.934-0.698,1.413-0.718c2-0.082,4.006-0.035,6.066-0.035
		c-1.316-1.995-1.158-3.653,0.534-5.283c1.919-1.848,4.25-2.62,6.885-2.276c1.33,0.173,2.429,0.846,2.87,2.217
		c0.457,1.42-0.049,2.656-1.052,3.618c-0.72,0.691-1.643,1.172-2.523,1.78c1.231,0.759,0.93,1.765,0.161,2.896
		c-0.938,1.38-1.741,2.853-2.668,4.241c-0.269,0.403-0.764,0.655-1.154,0.978c-0.118-0.111-0.235-0.222-0.354-0.333
		c1.248-2.108,2.496-4.217,3.871-6.539c-0.995-0.063-1.706-0.108-2.577-0.164c0.335-0.702,0.644-1.348,0.945-1.982
		c2.371-0.085,3.768-0.915,4.271-2.512c0.474-1.506-0.149-2.814-1.663-3.031c-2.565-0.368-4.926,0.226-6.705,2.231
		c-1.242,1.399-0.941,2.508,0.736,3.329c1.652,0.81,1.897,1.662,0.941,3.285c-0.947,1.608-1.863,3.238-2.869,4.809
		c-0.255,0.398-0.799,0.611-1.21,0.909C221.894,44.087,221.795,43.967,221.696,43.847z M220.099,39.688
		c-1.587-0.114-3.158,0.404-3.747,1.385c-0.203,0.339-0.12,1.266,0.104,1.377C217.738,43.089,220.112,41.282,220.099,39.688z"/>
	<path fill-rule="evenodd" clip-rule="evenodd" fill="#141840" d="M83.451,37.238c-3.043,0-6.086,0-9.149,0
		c0.033-1.052,0.602-1.237,1.457-1.217c1.916,0.046,3.834,0.015,5.439,0.015c-0.107-1.124-0.535-2.334-0.229-3.316
		c0.321-1.032,1.164-2.188,2.1-2.679c1.559-0.818,3.342-1.358,5.09-1.626c1.646-0.251,3.296,0.925,3.713,2.138
		c0.465,1.352-0.113,3.153-1.47,4.2c-0.673,0.519-1.483,0.859-2.272,1.305c1.254,0.634,1.259,1.53,0.488,2.673
		c-1.015,1.505-1.894,3.103-2.905,4.61c-0.251,0.375-0.79,0.558-1.196,0.828c-0.074-0.102-0.149-0.203-0.223-0.305
		c1.245-2.097,2.49-4.193,3.867-6.513c-0.944-0.071-1.65-0.124-2.464-0.186c0.245-0.638,0.479-1.246,0.672-1.751
		c1.035-0.307,2.072-0.453,2.946-0.91c1.257-0.657,1.956-2.278,1.578-3.365c-0.492-1.416-1.69-1.624-2.996-1.594
		c-1.99,0.047-3.789,0.612-5.211,2.047c-1.579,1.593-1.342,2.74,0.668,3.589c1.231,0.52,1.648,1.908,0.94,3.104
		c-0.976,1.647-1.908,3.323-2.94,4.934c-0.275,0.43-0.848,0.668-1.283,0.994c-0.097-0.104-0.193-0.209-0.29-0.313
		c0.883-1.489,1.766-2.979,2.73-4.604c-1.125,0-2.074,0-3.024,0c0.044,2.584-2.581,4.698-5.059,4.041
		c-0.564-0.149-1.274-0.724-1.413-1.238c-0.142-0.524,0.165-1.384,0.575-1.806c1.515-1.56,3.503-2.1,5.622-2.182
		c1.08-0.042,2.166,0.028,3.245-0.026c0.385-0.019,0.759-0.254,1.138-0.391C83.546,37.543,83.499,37.391,83.451,37.238z
		 M78.69,39.716c-2.018-0.283-3.242,0.248-4.176,1.32c-0.245,0.281-0.038,0.956-0.038,1.45c0.91-0.258,1.904-0.367,2.702-0.821
		C77.754,41.338,78.07,40.552,78.69,39.716z"/>
	<path fill-rule="evenodd" clip-rule="evenodd" fill="#141941" d="M170.469,43.671c1-0.385,1.941-0.747,2.981-1.147
		c0,0.099,0.148,0.59-0.024,0.767c-0.93,0.949-2.156,1.344-3.355,0.813c-0.629-0.278-0.992-1.156-1.32-1.907
		c-0.789-0.445-2.334,0.257-2.431-1.519c-0.054-1.002,1.896-2.533,3.108-2.564c0.895-0.023,1.26,0.523,1.518,2.373
		c1.546-0.68,3.294-0.993,3.999-3.172c-2.925,0-5.638,0-8.352,0c-0.063-0.171-0.125-0.343-0.188-0.515
		c0.446-0.255,0.882-0.704,1.341-0.729c1.646-0.089,3.299-0.035,5.037-0.035c-1.324-1.852-1.204-3.514,0.304-5.106
		c1.73-1.829,3.936-2.59,6.383-2.545c1.535,0.027,2.895,0.621,3.521,2.206c0.518,1.307,0.004,2.956-1.348,4.066
		c-0.666,0.547-1.475,0.92-2.28,1.41c1.354,0.726,1.029,1.715,0.3,2.82c-0.946,1.435-1.782,2.942-2.735,4.372
		c-0.265,0.397-0.777,0.63-1.177,0.938c-0.105-0.108-0.211-0.217-0.316-0.325c1.24-2.087,2.479-4.174,3.865-6.506
		c-1.007-0.079-1.797-0.142-2.795-0.221c0.516-0.985,0.754-1.866,2.121-2.065c0.973-0.142,2.117-0.71,2.698-1.463
		c0.53-0.688,0.785-2.047,0.454-2.8c-0.285-0.649-1.54-1.135-2.41-1.214c-2.14-0.193-4.101,0.487-5.62,2.073
		c-1.401,1.462-1.17,2.625,0.599,3.533c1.932,0.992,2.207,2.618,0.513,4.063c-0.987,0.842-2.19,1.521-3.407,1.975
		C170.358,41.653,169.878,42.106,170.469,43.671z M166.956,40.488c2.443,0.468,2.744,0.227,2.399-1.837
		C168.55,39.268,167.903,39.763,166.956,40.488z"/>
	<path fill-rule="evenodd" clip-rule="evenodd" fill="#151A41" d="M26.869,41.933c-0.443,0.004-0.927,0.122-1.316-0.021
		c-0.41-0.151-0.915-0.482-1.053-0.854c-0.389-1.047,1.206-2.684,2.808-2.876c1.351-0.162,1.648,0.745,1.658,1.853
		c0,0.095,0.038,0.189,0.06,0.284c2.375-0.442,3.626-1.414,3.761-3.046c-2.74,0-5.474,0-8.208,0
		c-0.062-0.175-0.124-0.35-0.186-0.523c0.498-0.237,0.986-0.651,1.496-0.679c1.616-0.089,3.239-0.033,4.896-0.033
		c-1.365-2.085-1.156-3.74,0.692-5.461c1.71-1.592,3.803-2.256,6.085-2.195c1.491,0.04,2.81,0.651,3.459,2.118
		c0.557,1.258,0.008,3.039-1.285,4.111c-0.698,0.578-1.55,0.97-2.361,1.463c1.321,0.615,1.152,1.586,0.379,2.74
		c-0.985,1.469-1.844,3.021-2.83,4.49c-0.26,0.388-0.786,0.598-1.19,0.889c-0.088-0.103-0.177-0.205-0.266-0.308
		c1.245-2.099,2.489-4.197,3.884-6.55c-0.977-0.059-1.728-0.104-2.479-0.149c0.085-1.313,0.677-1.839,1.783-2.075
		c0.871-0.186,1.805-0.55,2.468-1.117c0.88-0.754,1.357-1.873,0.862-3.065c-0.483-1.163-1.548-1.39-2.7-1.383
		c-2.156,0.016-4.101,0.598-5.579,2.23c-1.422,1.57-1.096,2.57,0.77,3.456c0.655,0.311,1.273,1.095,1.494,1.794
		c0.161,0.509-0.169,1.473-0.607,1.815c-1.22,0.954-2.538,1.862-3.957,2.456c-1.091,0.456-1.341,0.957-0.877,2.323
		c1.015-0.346,2.002-0.682,3.148-1.072c-0.069,0.219-0.107,0.838-0.306,0.894c-1.08,0.305-2.212,0.686-3.302,0.624
		c-1.018-0.057-1.122-1.064-0.988-1.964c-0.013-0.119-0.026-0.237-0.039-0.356C26.984,41.808,26.926,41.87,26.869,41.933z
		 M27.556,38.592c-0.907,0.673-1.559,1.156-2.427,1.8C27.328,41.044,27.78,40.74,27.556,38.592z"/>
	<path fill-rule="evenodd" clip-rule="evenodd" fill="#141941" d="M47.904,39.434c0.527,1.002,0.759,1.813,1.276,2.352
		c1.293,1.35,4.41,1.843,5.921,0.923c0.463-0.281,0.635-1.044,0.939-1.586c-0.471-0.214-0.923-0.524-1.417-0.62
		c-0.811-0.158-1.667-0.102-2.468-0.291c-0.359-0.085-0.629-0.547-0.996-0.89c2.092-0.132,3.871-0.213,5.642-0.378
		c0.408-0.038,0.851-0.295,1.164-0.577c0.254-0.229,0.338-0.647,0.498-0.982c-0.328-0.149-0.671-0.453-0.981-0.423
		c-1.557,0.151-3.102,0.416-4.657,0.582c-0.45,0.048-0.92-0.101-1.372-0.392c2.019-1.006,4.061-1.709,6.259-1.24
		c1.96,0.417,2.331,1.238,1.576,3.031c1.482,1.281,2.102,0.938,3.253-1.915c-0.691-0.051-1.344-0.099-2.345-0.173
		c0.436-0.471,0.714-1.039,1.031-1.063c0.808-0.06,1.648,0.069,2.432,0.284c0.097,0.026,0.097,1.119-0.146,1.558
		c-1.119,2.018-2.326,3.986-3.544,5.946c-0.153,0.245-0.565,0.329-0.857,0.487c-0.087-0.091-0.173-0.182-0.26-0.272
		c0.595-1.024,1.189-2.048,1.722-2.965c-0.914-0.378-1.704-0.706-2.689-1.113c-0.148,0.055-0.555,0.205-0.96,0.354
		c0.616,2.454-0.077,3.473-2.587,4.038c-2.226,0.5-4.234,0.108-5.903-1.425c-0.572-0.525-0.939-1.357-1.18-2.119
		C47.162,40.275,47.685,39.79,47.904,39.434z"/>
	<path fill-rule="evenodd" clip-rule="evenodd" fill="#151A42" d="M193.36,36.909c1.904-0.779,3.875-1.374,5.964-1.076
		c2.063,0.295,2.56,1.243,1.862,3.142c1.517,1.211,2.157,0.843,3.236-1.973c-0.691-0.038-1.342-0.075-2.412-0.135
		c0.516-0.508,0.814-1.058,1.145-1.077c0.803-0.047,1.634,0.103,2.412,0.322c0.085,0.024,0.052,1.11-0.195,1.554
		c-1.099,1.971-2.278,3.897-3.476,5.812c-0.168,0.269-0.594,0.377-0.9,0.56c-0.085-0.095-0.169-0.189-0.253-0.284
		c0.618-1.037,1.237-2.075,1.791-3.005c-0.878-0.308-1.713-0.602-2.846-0.998c-0.039,0.014-0.45,0.165-0.857,0.315
		c0.596,2.475-0.095,3.491-2.596,4.043c-2.274,0.502-4.321,0.112-6.006-1.511c-0.532-0.513-0.898-1.281-1.111-2.001
		c-0.089-0.3,0.422-0.777,0.51-0.924c0.856,1.05,1.372,2.056,2.193,2.607c1.533,1.032,3.335,1.23,5.059,0.465
		c0.478-0.212,0.702-0.996,1.043-1.518c-0.487-0.249-0.95-0.608-1.467-0.722c-0.854-0.188-1.757-0.148-2.604-0.349
		c-0.291-0.068-0.48-0.567-0.691-0.839c1.973-0.119,3.707-0.195,5.435-0.351c0.415-0.037,0.882-0.253,1.187-0.535
		c0.282-0.263,0.381-0.724,0.561-1.097c-0.343-0.133-0.699-0.409-1.024-0.376c-1.556,0.156-3.1,0.422-4.655,0.589
		c-0.432,0.046-0.885-0.111-1.328-0.176C193.343,37.219,193.352,37.064,193.36,36.909z"/>
	<path fill-rule="evenodd" clip-rule="evenodd" fill="#131840" d="M45.531,16.188c0.751,0,1.502,0.177,2.088-0.057
		c0.463-0.185,0.724-0.876,1.074-1.343c-0.485-0.292-1.097-0.93-1.432-0.809c-0.954,0.346-1.877,0.906-2.654,1.568
		c-0.533,0.455-0.747,1.266-1.213,1.825c-0.194,0.232-0.677,0.223-1.029,0.323c-0.036-0.289-0.072-0.577-0.06-0.484
		c-1.415,0-2.833,0.228-4.14-0.057c-1.72-0.375-2.093-1.86-1.059-3.292c1.791-2.48,5.588-3.007,7.822-0.99
		c0.286-0.567,0.557-1.104,0.978-1.937c-1.552,0-2.804,0-4.057,0c-1.221,0-2.443,0-3.665,0c-0.06-0.155-0.12-0.311-0.18-0.466
		c0.509-0.242,1.009-0.667,1.529-0.693c1.717-0.088,3.441-0.049,5.162-0.029c2.364,0.027,2.796,0.778,1.684,2.889
		c0.771,0.112,1.68,0.007,2.267,0.393c0.595,0.393,1.158,1.24,1.228,1.939c0.134,1.346-1.598,2.545-3.284,2.459
		C45.899,17.393,45.108,17.376,45.531,16.188z M39.591,16.623c1.339-0.623,2.616-1.071,3.729-1.776
		c1.095-0.692,0.924-1.514-0.341-1.945c-1.562-0.533-3.004-0.04-4.25,0.887c-0.475,0.353-1.059,1.215-0.916,1.582
		C38.011,15.878,38.847,16.138,39.591,16.623z"/>
	<path fill-rule="evenodd" clip-rule="evenodd" fill="#131840" d="M94.004,14.99c-0.904-0.252-1.679-0.469-2.495-0.697
		c-1.065,0.59-2.214,1.226-3.793,2.1c1.123,0.472,1.979,0.832,2.803,1.179c-0.907,1.26-2.191,0.99-3.474-0.877
		c-2.125,0.377-3.415-0.063-3.757-1.284c-0.324-1.152,0.455-2.446,1.727-2.871c1.216-0.405,1.978,0.248,2.986,2.761
		c1.061-0.766,2.131-1.417,3.031-2.251c0.336-0.312,0.466-1.11,0.324-1.574c-0.088-0.289-0.859-0.501-1.331-0.517
		c-1.767-0.06-3.537-0.024-5.306-0.024c-0.066-0.145-0.133-0.291-0.199-0.436c0.488-0.252,0.973-0.713,1.466-0.723
		c3.148-0.066,6.299-0.064,9.448-0.022c1.872,0.025,2.343,0.934,1.389,2.539c-0.929,1.563-1.846,3.133-2.833,4.657
		c-0.256,0.396-0.756,0.635-1.145,0.946c-0.089-0.098-0.179-0.197-0.269-0.295C93.057,16.723,93.537,15.845,94.004,14.99z
		 M92.478,13.547c1.993,0.73,3.288-0.256,3.415-2.616c-0.635,0-1.267,0-1.898,0c-0.479,0-0.958,0-1.346,0
		C92.589,11.84,92.537,12.648,92.478,13.547z M86.683,15.888c0.16-0.224,0.321-0.447,0.481-0.67
		c-0.574-0.593-1.147-1.187-1.721-1.779c-0.338,0.483-0.677,0.965-1.015,1.448C85.18,15.221,85.932,15.554,86.683,15.888z"/>
	<path fill-rule="evenodd" clip-rule="evenodd" fill="#131840" d="M178.782,16.222c0.652,0,1.361,0.18,1.891-0.051
		c0.519-0.227,0.854-0.874,1.27-1.336c-0.521-0.304-1.175-0.973-1.535-0.841c-0.947,0.349-1.838,0.965-2.612,1.634
		c-0.496,0.428-0.692,1.187-1.132,1.705c-0.201,0.237-0.663,0.253-1.007,0.37c-0.055-0.274-0.109-0.548-0.164-0.824
		c-0.941,0.181-1.965,0.636-2.888,0.483c-0.955-0.158-2.084-0.703-2.642-1.449c-0.652-0.872,0.134-1.836,0.832-2.575
		c1.965-2.08,5.329-2.343,7.366-0.458c0.295-0.563,0.57-1.087,0.971-1.849c-2.729,0-5.201,0-7.692,0
		c0.015-1.139,0.586-1.327,1.438-1.301c1.572,0.046,3.146,0.01,4.721,0.014c2.73,0.006,3.126,0.592,2.019,2.981
		c2.467-0.062,3.608,0.64,3.563,2.19c-0.041,1.416-1.729,2.657-3.446,2.515C178.979,17.368,178.291,17.218,178.782,16.222z
		 M172.931,16.625c1.334-0.646,2.598-1.122,3.708-1.835c0.979-0.629,0.848-1.339-0.232-1.809c-1.55-0.673-2.991-0.157-4.268,0.698
		c-0.534,0.357-0.805,1.107-1.194,1.678C171.546,15.741,172.146,16.125,172.931,16.625z"/>
	<path fill-rule="evenodd" clip-rule="evenodd" fill="#131840" d="M225.876,17.565c0.514-0.873,1.027-1.746,1.483-2.52
		c-2.294-1.46-3.998,0.143-6.375,1.291c1.197,0.529,2.051,0.906,2.866,1.267c-1.129,1.173-2.221,0.919-3.468-0.906
		c-2.262,0.372-3.506-0.09-3.819-1.419c-0.264-1.119,0.617-2.417,1.884-2.777c1.144-0.325,1.948,0.408,2.87,2.878
		c1.139-0.887,2.328-1.572,3.185-2.549c0.858-0.978,0.311-1.874-0.999-1.889c-1.813-0.021-3.628-0.005-5.441-0.005
		c-0.067-0.153-0.135-0.307-0.202-0.46c0.482-0.244,0.962-0.689,1.45-0.7c3.094-0.064,6.19-0.052,9.285-0.026
		c2.044,0.018,2.53,0.921,1.481,2.678c-0.905,1.515-1.798,3.039-2.759,4.518c-0.256,0.393-0.743,0.634-1.124,0.944
		C226.088,17.781,225.981,17.673,225.876,17.565z M225.819,13.507c1.571,1.24,3.229-0.46,3.432-2.491c-1.145,0-2.281,0-3.28,0
		C225.919,11.876,225.869,12.678,225.819,13.507z M220.057,15.862c0.143-0.27,0.286-0.541,0.429-0.811
		c-0.593-0.534-1.185-1.068-1.777-1.602c-0.316,0.498-0.633,0.996-0.95,1.494C218.524,15.249,219.291,15.556,220.057,15.862z"/>
	<path fill-rule="evenodd" clip-rule="evenodd" fill="#151A41" d="M244.404,19.944c-0.185,0.533-0.195,0.891-0.373,1.022
		c-1.354,0.998-4.031,0.716-5.039-0.491c-1.065-1.276-0.82-3.279,0.467-4.705c0.35-0.388,0.61-1.013,0.612-1.53
		c0.003-1.532,0.499-2.117,2.107-2.133c1.671-0.016,3.345,0.036,5.015-0.031c0.416-0.017,0.818-0.374,1.228-0.574
		c-0.391-0.224-0.775-0.629-1.174-0.642c-2.109-0.064-4.223-0.03-6.334-0.03c-0.075-0.122-0.15-0.244-0.225-0.365
		c0.375-0.242,0.743-0.68,1.126-0.692c2.112-0.068,4.228-0.024,6.343-0.037c1.065-0.006,1.376,0.617,1.283,1.531
		c-0.093,0.903-0.041,1.99-1.371,2.021c-1.867,0.042-3.74-0.042-5.604,0.05c-0.433,0.021-0.841,0.539-1.26,0.828
		c0.422,0.199,0.834,0.537,1.268,0.569c1.125,0.083,2.264-0.025,3.391,0.048c1.051,0.068,2.021,0.435,1.886,1.745
		c-0.124,1.204-0.942,1.844-2.135,1.768c-0.804-0.051-1.593-0.338-2.388-0.52c-0.013-0.142-0.025-0.283-0.038-0.424
		c0.297-0.095,0.592-0.252,0.892-0.265c0.222-0.009,0.455,0.259,0.676,0.25c0.609-0.027,1.221-0.112,1.816-0.241
		c0.071-0.016,0.127-0.632,0.064-0.657c-0.507-0.202-1.037-0.417-1.573-0.461c-0.879-0.073-1.769-0.027-2.653-0.018
		c-1.231,0.014-2.344,0.476-2.67,1.667c-0.198,0.728-0.029,1.85,0.438,2.402c0.839,0.991,2.098,0.835,3.252,0.326
		C243.646,20.262,243.861,20.174,244.404,19.944z"/>
	<path fill-rule="evenodd" clip-rule="evenodd" fill="#161A42" d="M249.974,36.032c-0.7-0.516-1.514-0.933-2.077-1.57
		c-0.897-1.014-1.593,0.033-2.377,0.049c-0.579,0.012-1.186,0.001-1.734-0.156c-1.384-0.396-1.939-1.42-1.479-2.551
		c0.456-1.123,1.994-1.727,3.082-1.104c0.755,0.431,1.405,1.044,2.36,1.772c0.143-0.223,0.554-0.575,0.497-0.821
		c-0.408-1.788,0.761-2.709,2.063-3.038c0.771-0.195,1.796,0.609,2.684,0.956c-1.089,2.789,0.005,4.777,1.516,6.557
		c0.713,0.84,0.759,1.504,0.229,2.355c-1.013,1.626-1.98,3.28-3.044,4.87c-0.255,0.381-0.815,0.557-1.235,0.827
		c-0.073-0.099-0.146-0.196-0.22-0.294c1.255-2.074,2.509-4.148,3.936-6.506c-1.104-0.093-1.849-0.155-2.671-0.224
		c0.039-0.312,0.078-0.621,0.134-1.064c-0.604-0.03-1.146-0.059-1.689-0.086L249.974,36.032z M252.695,35.561
		c-0.519-1.312-1.011-2.555-1.426-3.604c-0.951,0.091-1.884,0.18-2.829,0.27C248.274,33.813,249.968,35.172,252.695,35.561z
		 M246.585,33.068c0.037-0.131,0.076-0.262,0.114-0.392c-0.599-0.443-1.155-1.142-1.808-1.248c-0.505-0.082-1.13,0.578-1.701,0.908
		c0.44,0.349,0.846,0.913,1.33,0.993C245.177,33.438,245.894,33.173,246.585,33.068z M248.98,30.705
		c0.179,0.276,0.357,0.553,0.536,0.829c0.649-0.434,1.298-0.866,1.947-1.299c-0.158-0.222-0.417-0.654-0.458-0.635
		C250.314,29.936,249.651,30.327,248.98,30.705z"/>
	<path fill-rule="evenodd" clip-rule="evenodd" fill="#10153E" d="M255.063,11.939c0.289,3.33,1.642,5.502,5.163,5.167
		c0.904-0.086,1.785-0.419,2.677-0.64c-0.012-0.223-0.023-0.445-0.035-0.668c-0.669-0.143-1.335-0.304-2.009-0.424
		c-0.771-0.138-1.633-0.071-2.293-0.409c-0.544-0.279-0.852-1.019-1.265-1.554c0.573-0.434,1.111-1.175,1.725-1.243
		c1.603-0.178,3.239-0.032,4.861-0.083c0.36-0.011,0.714-0.298,1.07-0.458c-0.355-0.231-0.708-0.658-1.067-0.664
		c-3.095-0.053-6.19-0.031-9.286-0.031c-0.066-0.145-0.133-0.29-0.199-0.434c0.487-0.252,0.969-0.709,1.462-0.722
		c2.752-0.071,5.507-0.047,8.261-0.027c1.006,0.007,1.888,0.236,1.861,1.536c-0.027,1.28-0.714,2-1.965,2.007
		c-1.801,0.011-3.602,0.003-5.402,0.003c-0.03,0.17-0.062,0.34-0.093,0.511c0.642,0.123,1.285,0.235,1.924,0.37
		c0.947,0.201,1.954,0.278,2.818,0.668c0.823,0.371,1.029,1.164,0.373,1.96c-1.004,1.218-4.336,1.612-6.268,0.752
		c-2.001-0.892-3.248-2.863-3.001-4.77c0.022-0.176,0.139-0.341,0.211-0.511C254.745,12.165,254.904,12.052,255.063,11.939z"/>
	<path fill-rule="evenodd" clip-rule="evenodd" fill="#151A42" d="M187.966,9.811c1.289,0.783,0.894,1.738,0.188,2.792
		c-0.953,1.426-1.783,2.935-2.734,4.362c-0.263,0.394-0.768,0.626-1.161,0.933c-0.108-0.111-0.217-0.221-0.324-0.332
		c1.239-2.086,2.478-4.173,3.864-6.507c-2.365,0-4.486,0-6.246,0c-0.335-0.879-0.485-1.505-0.794-2.041
		c-0.699-1.214-0.497-2.375,0.137-3.491c1.308-2.301,5.237-3.958,7.821-3.346c1.305,0.309,2.434,0.871,2.807,2.285
		c0.371,1.407-0.059,2.656-1.104,3.611C189.715,8.722,188.854,9.194,187.966,9.811z M184.329,10.004
		c1.847-0.75,3.457-1.373,5.033-2.073c0.319-0.142,0.552-0.551,0.752-0.881c1.176-1.931,0.229-3.687-2.034-3.797
		c-1.875-0.091-3.602,0.369-5.12,1.477c-1.081,0.789-2.123,1.96-1.503,3.186C181.936,8.863,183.352,9.336,184.329,10.004z"/>
	<path fill-rule="evenodd" clip-rule="evenodd" fill="#10153E" d="M259.967,40.143c0.675,0.109,1.354,0.195,2.024,0.333
		c0.901,0.186,1.865,0.266,2.675,0.657c0.91,0.44,1.034,1.284,0.292,2.069c-1.125,1.191-4.429,1.479-6.3,0.584
		c-1.981-0.948-3.075-2.741-2.856-4.708c0.02-0.181,0.114-0.353,0.174-0.529c0.141-0.023,0.28-0.048,0.421-0.071
		c0.127,0.513,0.317,1.02,0.367,1.539c0.134,1.382,1.288,2.908,2.837,3.221c1.591,0.321,3.285,0.575,5.013-1.098
		c-1.033-0.207-1.705-0.354-2.38-0.474c-0.77-0.138-1.633-0.084-2.285-0.432c-0.534-0.285-1.192-1.1-1.113-1.563
		c0.084-0.493,0.939-1.151,1.512-1.21c1.607-0.165,3.244-0.024,4.865-0.085c0.389-0.015,0.766-0.345,1.148-0.529
		c-0.384-0.206-0.765-0.585-1.15-0.591c-3.048-0.05-6.097-0.027-9.145-0.027c-0.064-0.148-0.128-0.296-0.192-0.443
		c0.496-0.249,0.986-0.7,1.488-0.713c2.705-0.071,5.413-0.045,8.119-0.028c0.994,0.006,1.912,0.186,1.927,1.481
		c0.016,1.297-0.749,2.057-2.078,2.063c-1.76,0.01-3.518,0.002-5.277,0.002C260.023,39.775,259.995,39.959,259.967,40.143z"/>
	<path fill-rule="evenodd" clip-rule="evenodd" fill="#12173F" d="M249.947,36.005c0.153,0.812,0.701,1.92,0.367,2.366
		c-0.491,0.655-1.581,1.02-2.475,1.177c-1.242,0.22-2.564-0.009-3.803,0.222c-1.001,0.187-2.401,0.483-2.19,1.896
		c0.189,1.271,1.462,1.396,2.318,1.126c1.046-0.929,2.02-1.966,3.176-2.727c0.399-0.263,1.513-0.051,1.821,0.331
		c0.306,0.379,0.265,1.475-0.073,1.851c-0.816,0.905-1.896,1.574-2.937,2.391c0.388,0.342,0.974,0.858,1.561,1.375
		c-0.148,0.199-0.296,0.398-0.444,0.598c-1.72-1.679-4.018-2.285-5.934-3.537c-1.342-0.877-1.277-2.417,0.102-3.297
		c1.105-0.705,2.487-1.061,3.796-1.335c0.989-0.207,2.061,0.018,3.086-0.068c0.467-0.038,0.909-0.363,1.362-0.558
		c-0.049-0.169-0.098-0.337-0.146-0.506c-2.459,0-4.92,0-7.379,0c-0.058-0.188-0.114-0.375-0.172-0.563
		c0.511-0.236,1.016-0.658,1.534-0.678c2.149-0.078,4.304-0.035,6.456-0.037L249.947,36.005z M248.349,40.678
		c-1.622,0.229-2.253,1.065-2.562,2.501C247.291,43.034,248.155,42.447,248.349,40.678z"/>
	<path fill-rule="evenodd" clip-rule="evenodd" fill="#141941" d="M54.553,9.823c1.117,0.576,1.164,1.427,0.422,2.539
		c-1.008,1.51-1.892,3.102-2.896,4.615c-0.261,0.394-0.771,0.624-1.166,0.929c-0.104-0.106-0.207-0.213-0.311-0.32
		c1.254-2.11,2.507-4.22,3.912-6.583c-2.405,0-4.488,0-6.168,0c-0.386-0.867-0.574-1.477-0.905-1.996
		c-0.813-1.273-0.463-2.468,0.215-3.602c1.341-2.244,5.204-3.822,7.753-3.23c3.031,0.704,3.947,3.559,1.782,5.805
		C56.473,8.725,55.472,9.195,54.553,9.823z M54.191,3.251c-0.055-0.125-0.109-0.25-0.164-0.374c-1.54,0.676-3.151,1.231-4.596,2.071
		c-1.042,0.605-1.928,1.896-1.32,2.969c0.497,0.875,1.92,1.751,2.894,1.709c1.573-0.068,3.177-0.753,4.648-1.436
		c1.278-0.593,1.947-2.292,1.556-3.37C56.699,3.415,55.495,3.206,54.191,3.251z"/>
	<path fill-rule="evenodd" clip-rule="evenodd" fill="#141840" d="M20.524,40.842c-1.084-0.266-1.984-0.486-2.964-0.727
		c-0.911,1.732-2.053,3.139-4.079,3.527c-1.045,0.201-1.872-0.035-2.389-0.967c-0.54-0.973-0.063-1.874,0.725-2.273
		c1.48-0.75,3.089-1.243,4.818-1.91c0.08-1.112,0.08-1.112-3.894-1.665c0.467-0.264,0.929-0.742,1.403-0.755
		c2.604-0.075,5.212-0.057,7.818-0.028c1.534,0.017,2.025,0.855,1.261,2.209c-0.988,1.752-2.03,3.476-3.118,5.167
		c-0.229,0.356-0.759,0.52-1.15,0.771c-0.082-0.1-0.163-0.199-0.245-0.299C19.273,42.946,19.836,42,20.524,40.842z M17.927,39.145
		c1.024,0.313,2.039,0.623,3.231,0.987c0.386-0.89,0.775-1.786,1.241-2.859c-1.843,0-3.247,0-4.656,0
		C17.809,37.938,17.869,38.555,17.927,39.145z M16.196,40.423c-0.098-0.185-0.197-0.37-0.295-0.556
		c-1.114,0.47-2.262,0.877-3.321,1.448c-0.287,0.155-0.306,0.806-0.448,1.229c0.403,0.091,0.827,0.311,1.204,0.248
		C14.744,42.557,15.581,41.602,16.196,40.423z"/>
	<path fill-rule="evenodd" clip-rule="evenodd" fill="#12173F" d="M22.336,10.95c-2.891,0-5.781,0-8.672,0
		c-0.059-0.099-0.117-0.198-0.176-0.297c0.357-0.303,0.708-0.859,1.071-0.867c2.703-0.064,5.409-0.03,8.113,0.006
		c0.317,0.004,0.633,0.209,1.217,0.417c-0.94,2.667-2.653,4.826-3.976,7.178c-0.15,0.268-0.729,0.294-1.497,0.574
		c1.087-1.836,1.962-3.315,2.923-4.937c-1.083,0-2.021,0-2.96,0c-0.08,2.513-2.261,4.427-4.774,4.071
		c-0.631-0.09-1.537-0.601-1.687-1.105c-0.175-0.589,0.137-1.581,0.594-2.051c1.513-1.556,3.522-2.058,5.642-2.122
		c1.081-0.032,2.167,0.036,3.245-0.029c0.361-0.021,0.707-0.313,1.059-0.48C22.418,11.188,22.377,11.069,22.336,10.95z
		 M17.049,13.35c-1.596-0.19-2.824,0.347-3.74,1.447c-0.221,0.265-0.117,1.251,0.106,1.361C14.717,16.8,17.07,15,17.049,13.35z"/>
	<path fill-rule="evenodd" clip-rule="evenodd" fill="#11163E" d="M108.462,40.899c-0.526-0.175-0.851-0.286-1.178-0.39
		c-1.077-0.341-1.82-0.399-2.621,0.86c-0.655,1.033-2.083,1.666-3.285,2.231c-0.934,0.44-2.05,0.018-2.282-0.981
		c-0.157-0.68,0.222-1.933,0.756-2.237c1.391-0.795,2.999-1.209,4.708-1.845c0.151-1.089,0.151-1.089-3.905-1.744
		c0.504-0.252,1.003-0.708,1.515-0.722c2.606-0.074,5.216-0.061,7.823-0.024c1.439,0.021,1.947,0.883,1.238,2.148
		c-1.009,1.797-2.077,3.564-3.195,5.296c-0.221,0.341-0.788,0.458-1.372,0.405C107.238,42.941,107.812,41.986,108.462,40.899z
		 M105.776,37.284c-0.521,2.855,2.045,1.971,3.283,2.991c0.463-1.047,0.854-1.93,1.323-2.991
		C108.622,37.284,107.212,37.284,105.776,37.284z M104.226,40.279c-1.596-0.313-2.792,0.127-3.775,1.098
		c-0.256,0.253-0.273,0.747-0.4,1.13c0.349,0.109,0.709,0.339,1.045,0.308C102.6,42.677,103.482,41.707,104.226,40.279z"/>
	<path fill-rule="evenodd" clip-rule="evenodd" fill="#12173F" d="M151.948,17.598c0.886-1.494,1.773-2.988,2.738-4.614
		c-1.145,0-2.059,0-2.967,0c-0.222,2.553-1.805,4.132-4.343,4.098c-0.75-0.01-1.746-0.506-2.175-1.104
		c-0.596-0.831,0.082-1.625,0.806-2.246c1.574-1.351,3.444-1.834,5.451-1.912c1.081-0.042,2.167,0.032,3.246-0.03
		c0.359-0.021,0.704-0.3,1.055-0.461c-0.04-0.125-0.08-0.249-0.12-0.374c-2.89,0-5.78,0-8.67,0
		c-0.059-0.158-0.118-0.316-0.177-0.475c0.513-0.245,1.02-0.685,1.541-0.703c2.31-0.078,4.624-0.055,6.936-0.027
		c1.805,0.021,2.144,0.609,1.265,2.123c-0.986,1.699-1.954,3.41-3.013,5.062c-0.273,0.427-0.86,0.654-1.303,0.972
		C152.127,17.804,152.038,17.701,151.948,17.598z M150.365,13.384c-1.539-0.297-2.774,0.318-3.746,1.415
		c-0.22,0.249-0.103,1.253,0.122,1.361C148.044,16.786,150.405,14.972,150.365,13.384z"/>
	<path fill-rule="evenodd" clip-rule="evenodd" fill="#12173F" d="M160.681,43.85c0.555-0.915,1.11-1.831,1.793-2.957
		c-1.065-0.285-2.01-0.537-2.991-0.799c-0.867,1.847-2.064,3.126-4.011,3.542c-1.028,0.221-1.915,0.012-2.415-0.929
		c-0.535-1.008-0.054-1.969,0.811-2.393c1.452-0.713,3.035-1.157,4.786-1.797c0.062-0.543-0.043-1.288-1.245-1.288
		c-0.834,0-1.668,0-2.502,0c-0.069-0.146-0.139-0.29-0.208-0.436c0.48-0.252,0.955-0.709,1.441-0.723
		c2.607-0.072,5.218-0.059,7.826-0.024c1.481,0.021,1.979,0.839,1.261,2.123c-1.009,1.801-2.083,3.567-3.199,5.303
		c-0.214,0.333-0.758,0.454-1.149,0.673C160.813,44.047,160.747,43.948,160.681,43.85z M163.106,40.137
		c0.406-0.909,0.798-1.786,1.273-2.849c-1.82,0-3.27,0-4.688,0c0.084,0.666,0.162,1.284,0.235,1.868
		C160.937,39.468,161.91,39.768,163.106,40.137z M158.253,40.294c-1.717-0.338-2.968,0.149-3.977,1.266
		c-0.19,0.212-0.321,0.679-0.214,0.9c0.104,0.213,0.552,0.371,0.844,0.363C156.509,42.779,157.41,41.747,158.253,40.294z"/>
	<path fill-rule="evenodd" clip-rule="evenodd" fill="#161B42" d="M131.167,36.551c0.503-0.172,1.004-0.483,1.51-0.493
		c2.653-0.05,5.309-0.057,7.962-0.012c2.13,0.035,2.691,0.973,1.655,2.803c-0.894,1.579-1.891,3.102-2.9,4.61
		c-0.205,0.308-0.666,0.444-1.214,0.398c0.855-1.464,1.711-2.927,2.626-4.493c-1.934-0.458-3.169,0.347-4.273,1.574
		c-0.229,0.256-0.631,0.357-0.953,0.53c-0.074-0.13-0.149-0.259-0.223-0.389c0.202-0.272,0.438-0.526,0.598-0.822
		c0.217-0.399,0.375-0.831,0.56-1.249c-0.488-0.112-1.148-0.482-1.435-0.292c-1.226,0.817-2.575,1.625-3.435,2.77
		c-0.89,1.185-0.114,2.037,2.217,2.433c-0.453,0.321-0.781,0.717-0.969,0.658c-0.762-0.234-1.722-0.425-2.146-0.983
		c-0.415-0.546-0.594-1.677-0.306-2.277c0.971-2.021,2.742-3.143,4.962-3.493c0.32-0.05,0.788-0.027,0.989,0.166
		c1.403,1.354,2.998,0.211,4.483,0.377c0.261,0.029,0.568-0.353,0.854-0.544c-0.316-0.196-0.63-0.56-0.949-0.564
		c-2.703-0.046-5.407-0.021-8.11-0.032c-0.457-0.002-0.914-0.074-1.37-0.114C131.257,36.925,131.212,36.738,131.167,36.551z"/>
	<path fill-rule="evenodd" clip-rule="evenodd" fill="#141941" d="M65.611,37.738c-0.315-0.638-0.676-1.039-0.59-1.276
		c0.111-0.307,0.584-0.687,0.896-0.682c1.947,0.03,3.893,0.165,5.839,0.254c1.747,0.08,2.119,0.709,1.237,2.221
		c-0.988,1.695-2.003,3.377-3.061,5.029c-0.241,0.378-0.703,0.614-1.064,0.915c-0.104-0.086-0.207-0.173-0.31-0.259
		c0.131-0.352,0.262-0.702,0.463-1.242c-1.715,0.461-3.47,0.977-4.427-0.679C63.611,40.318,65.014,38.884,65.611,37.738z
		 M72.533,37.228c-0.87,0-1.348,0-1.825,0c-0.982,0-1.97-0.065-2.945,0.019c-1.073,0.093-2.722,3.082-2.252,4.018
		c0.12,0.239,0.367,0.472,0.612,0.582c0.998,0.447,3.493-0.065,4.124-0.941C71.012,39.843,71.639,38.682,72.533,37.228z"/>
	<path fill-rule="evenodd" clip-rule="evenodd" fill="#131840" d="M207.521,37.629c-0.262-0.493-0.626-0.876-0.594-1.222
		c0.023-0.246,0.583-0.635,0.898-0.629c1.89,0.033,3.776,0.182,5.666,0.253c1.969,0.074,2.307,0.624,1.321,2.309
		c-0.963,1.646-1.936,3.289-2.964,4.895c-0.252,0.393-0.741,0.634-1.121,0.945c-0.084-0.092-0.169-0.184-0.254-0.276
		c0.079-0.303,0.158-0.606,0.254-0.97C204.938,43.684,205.52,40.967,207.521,37.629z M214.423,37.228
		c-1.791,0-3.208-0.043-4.621,0.014c-1.167,0.047-2.896,2.988-2.396,4.033c0.115,0.24,0.371,0.472,0.618,0.58
		c1.023,0.449,3.479-0.075,4.119-0.969C212.905,39.824,213.535,38.667,214.423,37.228z"/>
	<path fill-rule="evenodd" clip-rule="evenodd" fill="#181D44" d="M135.098,11.149c-0.896-0.148-1.399-0.232-2.251-0.374
		c0.59-0.542,0.999-0.918,1.525-1.401c-0.746-2.291-0.218-4.518,1.844-6.208c0.681-0.559,1.639-0.929,2.519-1.065
		c1.854-0.288,3.22,1.53,2.503,3.238c-0.134,0.32-0.58,0.509-0.84,0.725c-0.21-1.064-0.22-2.371-0.531-2.447
		c-0.846-0.207-1.968-0.157-2.713,0.265c-1.992,1.129-2.626,3.875-1.507,5.933c0.505,0.93,0.497,1.717-0.083,2.599
		c-0.997,1.515-1.892,3.097-2.905,4.6c-0.264,0.393-0.803,0.6-1.215,0.893c-0.096-0.105-0.191-0.21-0.287-0.316
		C132.43,15.509,133.704,13.428,135.098,11.149z"/>
	<path fill-rule="evenodd" clip-rule="evenodd" fill="#1B1F46" d="M252.142,9.469c-0.534-0.104-1.117-0.108-1.59-0.338
		c-0.561-0.272-1.099-0.674-1.522-1.134c-1.255-1.365-2.513-2.493-4.616-1.798c-0.575,0.19-1.39-0.031-1.989-0.298
		c-0.954-0.426-1.677-1.235-1.26-2.344c0.415-1.107,1.406-1.729,2.593-1.407c0.817,0.222,1.533,0.822,2.292,1.256
		c0.538,0.309,0.83,1.36,1.749,0.572c0.037-0.032,0.518,0.301,0.495,0.375c-0.096,0.32-0.303,0.607-0.618,1.174
		c1.466,1.196,3.004,2.451,4.542,3.707C252.192,9.312,252.167,9.391,252.142,9.469z M245.76,5.256c0.07-0.221,0.14-0.442,0.21-0.664
		c-0.826-0.439-1.619-0.979-2.495-1.267c-0.333-0.109-0.856,0.361-1.293,0.567c0.253,0.395,0.444,1.059,0.77,1.134
		C243.857,5.234,244.82,5.197,245.76,5.256z"/>
	<path fill-rule="evenodd" clip-rule="evenodd" fill="#1B1F46" d="M159.641,31.86c1.492,1.195,3.013,2.412,4.532,3.629
		c-0.019,0.084-0.037,0.167-0.056,0.25c-0.525-0.089-1.105-0.067-1.562-0.295c-0.602-0.301-1.179-0.729-1.636-1.224
		c-1.228-1.327-2.446-2.463-4.497-1.72c-0.495,0.179-1.177-0.001-1.728-0.167c-1.183-0.355-1.916-1.531-1.622-2.447
		c0.337-1.052,1.765-1.809,2.874-1.38c0.759,0.293,1.423,0.832,2.133,1.254c0.494,0.294,0.755,1.326,1.625,0.517
		c0.042-0.039,0.536,0.264,0.52,0.327C160.136,30.93,159.951,31.228,159.641,31.86z M157.729,31.533
		c0.063-0.198,0.125-0.396,0.188-0.594c-0.724-0.438-1.412-0.962-2.184-1.289c-0.663-0.281-1.522-0.226-1.589,0.665
		c-0.028,0.374,0.686,1.038,1.169,1.165C156.07,31.679,156.918,31.533,157.729,31.533z"/>
	<path fill-rule="evenodd" clip-rule="evenodd" fill="#151A42" d="M22.165,35.809c-0.57-0.146-1.19-0.198-1.699-0.464
		c-0.554-0.288-1.046-0.734-1.495-1.183c-1.216-1.213-2.349-2.444-4.383-1.683c-0.563,0.211-1.383-0.008-1.997-0.253
		c-1.048-0.418-1.766-1.246-1.308-2.432c0.437-1.127,1.479-1.743,2.621-1.314c1.158,0.436,2.17,1.256,3.386,1.992
		c0.157,0,0.572,0,0.986,0c-0.096,0.356-0.192,0.713-0.393,1.458c1.318,1.081,2.853,2.34,4.388,3.599
		C22.235,35.622,22.2,35.716,22.165,35.809z M15.899,31.558c0.064-0.235,0.129-0.472,0.194-0.707
		c-0.916-0.435-1.806-0.946-2.762-1.255c-0.275-0.089-0.739,0.402-1.117,0.628c0.229,0.367,0.403,0.993,0.696,1.055
		C13.884,31.48,14.9,31.48,15.899,31.558z"/>
	<path fill-rule="evenodd" clip-rule="evenodd" fill="#151A42" d="M89.859,5.578c1.461,1.177,2.98,2.4,4.499,3.624
		c-0.023,0.085-0.047,0.171-0.071,0.256c-0.434-0.065-0.916-0.034-1.291-0.219c-0.607-0.3-1.235-0.657-1.691-1.143
		c-1.339-1.424-2.667-2.668-4.879-1.889c-0.452,0.159-1.079-0.027-1.579-0.193c-1.207-0.402-1.85-1.517-1.52-2.489
		c0.34-1.003,1.712-1.738,2.776-1.324c0.805,0.313,1.512,0.879,2.261,1.336c0.456,0.278,0.694,1.267,1.501,0.449
		c0.044-0.045,0.542,0.233,0.53,0.276C90.292,4.628,90.119,4.975,89.859,5.578z M87.979,5.307c0.07-0.249,0.14-0.499,0.21-0.748
		c-0.956-0.437-1.89-0.934-2.88-1.267c-0.236-0.079-0.842,0.33-0.937,0.625c-0.087,0.271,0.229,0.949,0.462,0.999
		C85.863,5.135,86.927,5.192,87.979,5.307z"/>
	<path fill-rule="evenodd" clip-rule="evenodd" fill="#151A42" d="M223.126,5.591c1.43,1.152,2.949,2.377,4.469,3.602
		c-0.027,0.095-0.055,0.19-0.082,0.285c-0.558-0.125-1.173-0.144-1.66-0.402c-0.596-0.315-1.14-0.781-1.609-1.273
		c-1.17-1.229-2.316-2.295-4.262-1.619c-0.578,0.201-1.383,0.002-2.004-0.229c-1.061-0.394-1.724-1.184-1.402-2.408
		c0.268-1.019,1.684-1.742,2.755-1.356c0.723,0.261,1.354,0.767,2.04,1.137c0.569,0.307,0.852,1.521,1.844,0.61
		c0.027-0.026,0.435,0.239,0.418,0.309C223.544,4.614,223.375,4.962,223.126,5.591z M221.19,5.283
		c0.073-0.242,0.146-0.483,0.219-0.725c-0.872-0.433-1.715-0.962-2.634-1.246c-0.317-0.098-0.823,0.414-1.244,0.647
		c0.244,0.361,0.434,0.971,0.742,1.039C219.222,5.205,220.215,5.204,221.19,5.283z"/>
	<path fill-rule="evenodd" clip-rule="evenodd" fill="#131840" d="M141.641,35.964c-0.862-0.433-1.746-0.827-2.576-1.314
		c-0.413-0.242-0.773-0.616-1.079-0.994c-0.892-1.102-1.852-1.692-3.389-1.205c-0.72,0.228-1.67,0.024-2.429-0.236
		c-1.077-0.368-1.735-1.25-1.298-2.412c0.424-1.129,1.465-1.743,2.606-1.316c1.156,0.434,2.17,1.246,3.459,2.021
		c0.076-0.006,0.484-0.038,0.893-0.07c-0.104,0.393-0.207,0.785-0.393,1.488c1.384,1.124,2.918,2.37,4.453,3.616
		C141.806,35.682,141.724,35.822,141.641,35.964z M135.5,31.529c0.057-0.223,0.114-0.445,0.17-0.667
		c-0.872-0.437-1.715-0.968-2.634-1.257c-0.315-0.099-0.82,0.408-1.239,0.638c0.237,0.37,0.422,1.004,0.719,1.062
		C133.489,31.492,134.502,31.471,135.5,31.529z"/>
	<path fill-rule="evenodd" clip-rule="evenodd" fill="#F9F9FA" d="M121.168,14.476c-0.964-1.13-1.929-2.259-2.959-3.467
		c2.794,0,5.51,0,8.232,0c-0.148,1.636-1.549,2.736-3.09,2.197c-1.452-0.508-1.773,0.025-1.769,1.274
		C121.444,14.478,121.306,14.477,121.168,14.476z"/>
	<path fill-rule="evenodd" clip-rule="evenodd" fill="#181D44" d="M248.771,17.55c1.257-2.061,2.515-4.122,3.886-6.37
		c-1.063-0.232-1.8-0.394-2.537-0.555c0.248-0.768,1.652-1.254,2.671-0.842c0.894,0.361,1.142,1.165,0.705,1.936
		c-1.085,1.917-2.265,3.782-3.47,5.626c-0.18,0.275-0.706,0.325-1.072,0.479C248.894,17.733,248.833,17.642,248.771,17.55z"/>
	<path fill-rule="evenodd" clip-rule="evenodd" fill="#141941" d="M23.003,17.548c1.244-2.066,2.488-4.132,3.885-6.454
		c-1.008-0.102-1.659-0.167-2.316-0.233c0.402-1.031,1.528-1.54,2.514-1.032c1.001,0.516,0.975,1.36,0.438,2.236
		c-1.022,1.67-2.025,3.353-3.097,4.991c-0.24,0.366-0.734,0.567-1.111,0.845C23.211,17.783,23.107,17.665,23.003,17.548z"/>
	<path fill-rule="evenodd" clip-rule="evenodd" fill="#181D44" d="M156.291,17.58c1.255-2.072,2.509-4.143,3.914-6.463
		c-0.999-0.114-1.65-0.188-2.306-0.263c0.391-1.021,1.522-1.54,2.498-1.032c0.997,0.519,0.991,1.361,0.447,2.247
		c-1.026,1.674-2.022,3.369-3.109,5.003c-0.25,0.377-0.817,0.543-1.238,0.807C156.428,17.779,156.359,17.679,156.291,17.58z"/>
	<path fill-rule="evenodd" clip-rule="evenodd" fill="#F2F2F4" d="M120.519,15.409c-0.643,0.139-1.285,0.386-1.929,0.389
		c-0.783,0.003-1.567-0.199-2.351-0.312c0.118-0.719,0.167-1.46,0.377-2.151c0.148-0.485,0.518-0.903,0.933-1.589
		c1.059,1.258,2.016,2.395,2.973,3.532C120.522,15.279,120.519,15.409,120.519,15.409z"/>
	<path fill-rule="evenodd" clip-rule="evenodd" fill="#F5F5F7" d="M127.65,10.988c1.108,0,2.08,0,3.047,0
		c0.105,1.968-1.548,3.932-3.912,4.706c-1.919,0.629-3.074,0.303-4.044-1.141C126.217,14.28,127.667,13.243,127.65,10.988z"/>
	<path fill-rule="evenodd" clip-rule="evenodd" fill="#EFF0F2" d="M107.203,15.134c1.476-0.132,2.761-0.276,4.051-0.34
		c0.269-0.013,0.552,0.272,0.829,0.419c-0.167,0.272-0.272,0.69-0.511,0.789c-0.797,0.333-1.688,0.844-2.455,0.725
		C108.452,16.623,107.905,15.755,107.203,15.134z"/>
	<path fill-rule="evenodd" clip-rule="evenodd" fill="#F8F8F9" d="M70.023,8.882c0.352,0.681,0.547,1.057,0.742,1.434
		c-0.083,0.052-0.166,0.104-0.248,0.156c-0.404-0.216-0.791-0.478-1.215-0.641c-1.015-0.389-2.098-0.635-3.047-1.14
		C65.863,8.483,65.42,7.624,65.559,7.3c0.405-0.945,0.901-2.154,1.711-2.557c1.521-0.757,3.268-1.298,4.958-1.423
		c2.32-0.172,3.27,1.829,2.025,3.817C73.316,8.634,71.84,8.97,70.023,8.882z"/>
	<path fill-rule="evenodd" clip-rule="evenodd" fill="#F5F5F7" d="M65.669,10.978c1.12,0,2.233,0,3.35,0
		c-0.177,2.348-1.457,3.31-3.477,2.539c0.066-0.39,0.175-0.802,0.197-1.217C65.761,11.872,65.697,11.439,65.669,10.978z"/>
	<path fill-rule="evenodd" clip-rule="evenodd" fill="#EDEEF0" d="M59.748,15.917c-0.736-0.362-1.473-0.723-2.209-1.085
		c0.313-0.452,0.625-0.904,0.938-1.356c0.601,0.539,1.201,1.077,1.801,1.615C60.101,15.366,59.924,15.641,59.748,15.917z"/>
	<path fill-rule="evenodd" clip-rule="evenodd" fill="#F9F9FA" d="M203.452,8.864c0.26,0.68,0.433,1.135,0.7,1.837
		c-0.806-0.429-1.237-0.709-1.707-0.898c-0.965-0.389-1.987-0.651-2.916-1.107c-1.06-0.52-0.962-1.648-0.415-2.264
		c0.936-1.054,2.087-2.014,3.331-2.662c0.896-0.467,2.089-0.498,3.147-0.488c2.246,0.019,3.193,1.843,2.029,3.776
		C206.708,8.576,205.254,8.997,203.452,8.864z"/>
	<path fill-rule="evenodd" clip-rule="evenodd" fill="#F5F5F7" d="M198.839,13.54c0.059-0.9,0.111-1.708,0.167-2.563
		c1.025,0,2.137,0,3.251,0C202.103,13.31,200.816,14.282,198.839,13.54z"/>
	<path fill-rule="evenodd" clip-rule="evenodd" fill="#EDEEF0" d="M193.029,15.903c-0.747-0.347-1.495-0.693-2.242-1.04
		c0.346-0.478,0.691-0.955,1.038-1.432c0.564,0.607,1.128,1.214,1.692,1.821C193.355,15.469,193.192,15.686,193.029,15.903z"/>
	<path fill-rule="evenodd" clip-rule="evenodd" fill="#F3F4F5" d="M220.099,39.688c0.014,1.595-2.36,3.401-3.644,2.762
		c-0.224-0.111-0.307-1.038-0.104-1.377C216.94,40.092,218.512,39.573,220.099,39.688z"/>
	<path fill-rule="evenodd" clip-rule="evenodd" fill="#F2F2F4" d="M78.69,39.716c-0.621,0.836-0.936,1.622-1.512,1.949
		c-0.798,0.454-1.792,0.563-2.702,0.821c0-0.494-0.207-1.169,0.038-1.45C75.448,39.964,76.673,39.433,78.69,39.716z"/>
	<path fill-rule="evenodd" clip-rule="evenodd" fill="#EFF0F2" d="M166.956,40.488c0.948-0.726,1.595-1.221,2.399-1.837
		C169.7,40.715,169.398,40.956,166.956,40.488z"/>
	<path fill-rule="evenodd" clip-rule="evenodd" fill="#E7E8EC" d="M27.556,38.592c0.224,2.148-0.228,2.452-2.427,1.8
		C25.997,39.748,26.649,39.265,27.556,38.592z"/>
	<path fill-rule="evenodd" clip-rule="evenodd" fill="#FCFCFD" d="M26.869,41.933c0.057-0.063,0.115-0.125,0.172-0.188
		c0.013,0.119,0.026,0.237,0.039,0.356C27.001,42.056,26.931,42,26.869,41.933z"/>
	<path fill-rule="evenodd" clip-rule="evenodd" fill="#F6F6F8" d="M39.591,16.623c-0.744-0.484-1.58-0.744-1.777-1.252
		c-0.143-0.367,0.441-1.229,0.916-1.582c1.246-0.927,2.688-1.42,4.25-0.887c1.265,0.431,1.436,1.253,0.341,1.945
		C42.207,15.551,40.93,16,39.591,16.623z"/>
	<path fill-rule="evenodd" clip-rule="evenodd" fill="#F5F5F7" d="M92.478,13.547c0.059-0.899,0.111-1.707,0.17-2.616
		c0.388,0,0.867,0,1.346,0c0.632,0,1.264,0,1.898,0C95.766,13.291,94.471,14.277,92.478,13.547z"/>
	<path fill-rule="evenodd" clip-rule="evenodd" fill="#EDEEF0" d="M86.683,15.888c-0.751-0.334-1.503-0.667-2.255-1.001
		c0.338-0.483,0.677-0.965,1.015-1.448c0.574,0.593,1.147,1.186,1.721,1.779C87.004,15.441,86.843,15.665,86.683,15.888z"/>
	<path fill-rule="evenodd" clip-rule="evenodd" fill="#F6F6F8" d="M172.931,16.625c-0.784-0.5-1.385-0.884-1.986-1.268
		c0.39-0.571,0.66-1.321,1.194-1.678c1.276-0.854,2.718-1.371,4.268-0.698c1.08,0.47,1.212,1.18,0.232,1.809
		C175.528,15.503,174.265,15.979,172.931,16.625z"/>
	<path fill-rule="evenodd" clip-rule="evenodd" fill="#F8F8F9" d="M225.819,13.507c0.05-0.83,0.1-1.631,0.151-2.491
		c0.999,0,2.136,0,3.28,0C229.048,13.047,227.391,14.748,225.819,13.507z"/>
	<path fill-rule="evenodd" clip-rule="evenodd" fill="#EAEAEE" d="M220.057,15.862c-0.766-0.306-1.532-0.613-2.299-0.919
		c0.317-0.498,0.634-0.996,0.95-1.494c0.593,0.534,1.185,1.068,1.777,1.602C220.343,15.321,220.199,15.592,220.057,15.862z"/>
	<path fill-rule="evenodd" clip-rule="evenodd" fill="#EAEAEE" d="M252.695,35.561c-2.728-0.389-4.421-1.748-4.255-3.334
		c0.945-0.09,1.878-0.179,2.829-0.27C251.685,33.006,252.177,34.249,252.695,35.561z"/>
	<path fill-rule="evenodd" clip-rule="evenodd" fill="#EAEAEE" d="M246.585,33.068c-0.691,0.104-1.408,0.369-2.064,0.262
		c-0.484-0.08-0.89-0.645-1.33-0.993c0.571-0.33,1.196-0.99,1.701-0.908c0.652,0.106,1.209,0.805,1.808,1.248
		C246.661,32.807,246.622,32.938,246.585,33.068z"/>
	<path fill-rule="evenodd" clip-rule="evenodd" fill="#E0E0E6" d="M248.98,30.705c0.671-0.378,1.334-0.77,2.025-1.104
		c0.041-0.02,0.3,0.413,0.458,0.635c-0.649,0.433-1.298,0.865-1.947,1.299C249.338,31.258,249.159,30.981,248.98,30.705z"/>
	<path fill-rule="evenodd" clip-rule="evenodd" fill="#F9F9FA" d="M184.329,10.004c-0.978-0.668-2.394-1.142-2.872-2.089
		c-0.62-1.225,0.422-2.397,1.503-3.186c1.519-1.108,3.245-1.568,5.12-1.477c2.263,0.11,3.21,1.866,2.034,3.797
		c-0.2,0.33-0.433,0.739-0.752,0.881C187.786,8.632,186.176,9.254,184.329,10.004z"/>
	<path fill-rule="evenodd" clip-rule="evenodd" fill="#EAEAEE" d="M248.349,40.678c-0.193,1.77-1.058,2.356-2.562,2.501
		C246.096,41.743,246.727,40.906,248.349,40.678z"/>
	<path fill-rule="evenodd" clip-rule="evenodd" fill="#F9F9FA" d="M54.191,3.251c1.303-0.046,2.508,0.163,3.018,1.569
		c0.391,1.078-0.278,2.777-1.556,3.37c-1.471,0.683-3.076,1.367-4.648,1.436c-0.973,0.042-2.397-0.834-2.894-1.709
		c-0.608-1.072,0.278-2.363,1.32-2.969c1.445-0.84,3.056-1.395,4.596-2.071C54.082,3.002,54.137,3.127,54.191,3.251z"/>
	<path fill-rule="evenodd" clip-rule="evenodd" fill="#F5F5F7" d="M17.927,39.145c-0.058-0.59-0.119-1.207-0.184-1.872
		c1.409,0,2.813,0,4.656,0c-0.466,1.073-0.855,1.97-1.241,2.859C19.966,39.768,18.952,39.458,17.927,39.145z"/>
	<path fill-rule="evenodd" clip-rule="evenodd" fill="#F2F2F4" d="M16.196,40.423c-0.615,1.179-1.452,2.134-2.86,2.369
		c-0.377,0.063-0.801-0.157-1.204-0.248c0.142-0.423,0.162-1.073,0.448-1.229c1.059-0.571,2.207-0.979,3.321-1.448
		C15.999,40.053,16.098,40.238,16.196,40.423z"/>
	<path fill-rule="evenodd" clip-rule="evenodd" fill="#F2F2F4" d="M17.049,13.35c0.021,1.65-2.332,3.451-3.633,2.809
		c-0.223-0.11-0.327-1.096-0.106-1.361C14.225,13.697,15.453,13.159,17.049,13.35z"/>
	<path fill-rule="evenodd" clip-rule="evenodd" fill="#F3F4F5" d="M105.776,37.284c1.436,0,2.846,0,4.605,0
		c-0.469,1.062-0.859,1.944-1.323,2.991C107.821,39.255,105.256,40.14,105.776,37.284z"/>
	<path fill-rule="evenodd" clip-rule="evenodd" fill="#EDEEF0" d="M104.226,40.279c-0.744,1.428-1.625,2.397-3.131,2.535
		c-0.336,0.031-0.696-0.198-1.045-0.308c0.127-0.383,0.145-0.877,0.4-1.13C101.434,40.406,102.629,39.966,104.226,40.279z"/>
	<path fill-rule="evenodd" clip-rule="evenodd" fill="#F3F4F5" d="M150.365,13.384c0.04,1.588-2.32,3.402-3.624,2.776
		c-0.225-0.108-0.342-1.113-0.122-1.361C147.59,13.702,148.826,13.087,150.365,13.384z"/>
	<path fill-rule="evenodd" clip-rule="evenodd" fill="#F5F5F7" d="M163.106,40.137c-1.196-0.369-2.169-0.669-3.18-0.98
		c-0.073-0.584-0.151-1.202-0.235-1.868c1.417,0,2.868,0,4.688,0C163.904,38.351,163.513,39.228,163.106,40.137z"/>
	<path fill-rule="evenodd" clip-rule="evenodd" fill="#EAEAEE" d="M158.253,40.294c-0.843,1.453-1.744,2.485-3.347,2.529
		c-0.292,0.008-0.741-0.15-0.844-0.363c-0.107-0.222,0.023-0.688,0.214-0.9C155.285,40.443,156.536,39.956,158.253,40.294z"/>
	<path fill-rule="evenodd" clip-rule="evenodd" fill="#F8F8F9" d="M72.533,37.228c-0.894,1.454-1.521,2.615-2.286,3.677
		c-0.631,0.876-3.126,1.389-4.124,0.941c-0.245-0.11-0.492-0.343-0.612-0.582c-0.47-0.936,1.179-3.925,2.252-4.018
		c0.975-0.084,1.962-0.019,2.945-0.019C71.186,37.228,71.663,37.228,72.533,37.228z"/>
	<path fill-rule="evenodd" clip-rule="evenodd" fill="#F8F8F9" d="M214.423,37.228c-0.888,1.439-1.518,2.597-2.28,3.658
		c-0.641,0.894-3.096,1.418-4.119,0.969c-0.247-0.108-0.503-0.34-0.618-0.58c-0.499-1.045,1.229-3.986,2.396-4.033
		C211.215,37.185,212.632,37.228,214.423,37.228z"/>
	<path fill-rule="evenodd" clip-rule="evenodd" fill="#EDEEF0" d="M245.76,5.256c-0.939-0.06-1.902-0.022-2.809-0.229
		c-0.325-0.075-0.517-0.739-0.77-1.134c0.437-0.206,0.96-0.677,1.293-0.567c0.876,0.288,1.669,0.828,2.495,1.267
		C245.899,4.814,245.83,5.035,245.76,5.256z"/>
	<path fill-rule="evenodd" clip-rule="evenodd" fill="#EDEEF0" d="M157.729,31.533c-0.81,0-1.658,0.146-2.417-0.053
		c-0.483-0.127-1.197-0.791-1.169-1.165c0.067-0.891,0.927-0.946,1.589-0.665c0.771,0.327,1.459,0.851,2.184,1.289
		C157.854,31.137,157.791,31.335,157.729,31.533z"/>
	<path fill-rule="evenodd" clip-rule="evenodd" fill="#E7E8EC" d="M15.899,31.558c-1-0.077-2.016-0.077-2.99-0.279
		c-0.292-0.062-0.467-0.688-0.696-1.055c0.378-0.226,0.842-0.717,1.117-0.628c0.956,0.309,1.847,0.82,2.762,1.255
		C16.029,31.086,15.964,31.322,15.899,31.558z"/>
	<path fill-rule="evenodd" clip-rule="evenodd" fill="#E7E8EC" d="M87.979,5.307c-1.052-0.115-2.116-0.172-3.145-0.391
		c-0.234-0.05-0.55-0.728-0.462-0.999c0.095-0.295,0.701-0.704,0.937-0.625c0.99,0.333,1.925,0.83,2.88,1.267
		C88.118,4.809,88.048,5.058,87.979,5.307z"/>
	<path fill-rule="evenodd" clip-rule="evenodd" fill="#E7E8EC" d="M221.19,5.283c-0.976-0.08-1.969-0.079-2.917-0.285
		c-0.309-0.067-0.498-0.677-0.742-1.039c0.421-0.233,0.927-0.746,1.244-0.647c0.919,0.284,1.762,0.813,2.634,1.246
		C221.337,4.8,221.264,5.042,221.19,5.283z"/>
	<path fill-rule="evenodd" clip-rule="evenodd" fill="#E7E8EC" d="M135.5,31.529c-0.998-0.059-2.01-0.037-2.983-0.225
		c-0.297-0.058-0.482-0.691-0.719-1.062c0.418-0.229,0.924-0.736,1.239-0.638c0.919,0.289,1.762,0.82,2.634,1.257
		C135.613,31.084,135.556,31.307,135.5,31.529z"/>
</g>
<rect x="259.111" y="18.782" fill-rule="evenodd" clip-rule="evenodd" fill="#141941" stroke="#141941" stroke-width="0.25" stroke-miterlimit="10" width="1.182" height="1.181"/>
<rect x="260.111" y="44.782" fill-rule="evenodd" clip-rule="evenodd" fill="#141941" stroke="#141941" stroke-width="0.25" stroke-miterlimit="10" width="1.182" height="1.18"/>
<rect x="110.111" y="31.782" fill-rule="evenodd" clip-rule="evenodd" fill="#141941" stroke="#141941" stroke-width="0.25" stroke-miterlimit="10" width="1.182" height="1.18"/>
</svg>
