<svg xmlns="http://www.w3.org/2000/svg" xmlns:xlink="http://www.w3.org/1999/xlink" viewBox="0 0 1920 1080"><defs><style>.a,.e,.h{fill:none;}.b{clip-path:url(#d);}.c{clip-path:url(#a);}.d{fill:#e9290f;}.e{stroke:#000;}.f,.g{fill:#ff6006;}.f,.h{stroke:#ff6006;}.i{fill:#ff6f29;stroke:#ff6f29;}.j{clip-path:url(#b);}.k{fill:#fff;}</style><clipPath id="a"><path class="a" d="M0-561H1920V519H0Z" transform="translate(0 561.004)"/></clipPath><clipPath id="b"><path class="a" d="M0-451.463H1495.025V498.12H0Z" transform="translate(0 451.463)"/></clipPath><clipPath id="d"><rect width="1920" height="1080"/></clipPath></defs><g id="c" class="b"><rect class="k" width="1920" height="1080"/><g transform="translate(0 561.004)"><g class="c" transform="translate(0 -561.004)"><g transform="translate(0.999 0.97)"><path class="d" d="M814.394,0C797.679,164.758,717.787,321,580.03,430.264c-99.849,80.855-215.674,119.357-341.484,150.159S-1.092,636.252-126.9,663.2c-47.928,9.626-91.861,13.476-139.789,21.176-43.934,5.775-81.876,13.476-125.81,23.1C-556.465,743.7-711.654,812.326-816.859,933.8v144.267h1917.1V0Z" transform="translate(816.859)"/></g><g transform="translate(0.999 0.97)"><path class="e" d="M814.394,0C797.679,164.758,717.787,321,580.03,430.264c-99.849,80.855-215.674,119.357-341.484,150.159S-1.092,636.252-126.9,663.2c-47.928,9.626-91.861,13.476-139.789,21.176-43.934,5.775-81.876,13.476-125.81,23.1C-556.465,743.7-711.654,812.326-816.859,933.8v144.267h1917.1V0Z" transform="translate(816.859)"/></g><g transform="translate(0 529.416)"><path class="f" d="M69.789,264.122H-69c222.663-364.81,1261.094-257,1346.964-549.622C1192.093,7.118,293.451-100.689,70.787,264.122" transform="translate(70 285.5)"/></g><g transform="translate(1347.963 0.97)"><path class="g" d="M0,381.612C343.481,243,390.514-410.6,390.41-412.5l136.793.963c.1,1.9-183.722,654.541-527.2,793.149" transform="translate(0 412.5)"/></g><g transform="translate(1347.963 0.97)"><path class="h" d="M0,381.612C343.481,243,390.514-410.6,390.41-412.5l136.793.963C527.307-409.641,343.481,243,0,381.612Z" transform="translate(0 412.5)"/></g><g transform="translate(412.586 795.082)"><path class="i" d="M749.4,4.394l4.455,102.513,1-1.925C657,303.269-537.2,45.3-751.664,279.205-537.2,45.3,657,193.537,754.849-4.75" transform="translate(751.664 4.75)"/></g></g></g><g transform="translate(0 423.88)"><g class="j" transform="translate(0 -451.463)"><g transform="translate(1.036 5.181)"><path class="i" d="M0,495.4C0,118.723,1194.673-49.364,1420.455-449v1.052h72.5V-449C1321.028-36.744,80.525,154.661,3.418,459.545" transform="translate(0 449)"/></g></g></g></g></svg>