<svg xmlns="http://www.w3.org/2000/svg" xmlns:xlink="http://www.w3.org/1999/xlink" viewBox="0 0 414 736"><defs><style>.a,.e,.h{fill:none;}.b{clip-path:url(#d);}.c{clip-path:url(#a);}.d{fill:#e9290f;}.e{stroke:#000;}.f,.g{fill:#ff6006;}.f,.h{stroke:#ff6006;}.i{fill:#ff6f29;stroke:#ff6f29;}.j{clip-path:url(#b);}.k{fill:#fff;}</style><clipPath id="a"><path class="a" d="M0-561H1071.725V229.009H0Z" transform="translate(0 561.004)"/></clipPath><clipPath id="b"><path class="a" d="M0-451.463H622.306v759.99H0Z" transform="translate(0 451.463)"/></clipPath><clipPath id="d"><rect width="414" height="736"/></clipPath></defs><g id="c" class="b"><rect class="k" width="414" height="736"/><g transform="translate(-308.428 675.697) rotate(-14)"><g class="c" transform="translate(0 -561.004)"><g transform="translate(0.558 0.71)"><path class="d" d="M93.69,0C84.36,120.519,39.765,234.808-37.13,314.736c-55.735,59.145-120.387,87.309-190.613,109.841s-133.763,40.838-203.989,60.553c-26.753,7.041-51.276,9.858-78.029,15.49-24.523,4.225-45.7,9.857-70.226,16.9-91.523,26.5-178.148,76.693-236.873,165.551V788.6H253.248V0Z" transform="translate(816.859)"/></g><g transform="translate(0.558 0.71)"><path class="e" d="M93.69,0C84.36,120.519,39.765,234.808-37.13,314.736c-55.735,59.145-120.387,87.309-190.613,109.841s-133.763,40.838-203.989,60.553c-26.753,7.041-51.276,9.858-78.029,15.49-24.523,4.225-45.7,9.857-70.226,16.9-91.523,26.5-178.148,76.693-236.873,165.551V788.6H253.248V0Z" transform="translate(816.859)"/></g><g transform="translate(0 387.264)"><path class="f" d="M8.029,116.545H-69.443c124.288-266.856,703.93-188,751.862-402.045C634.487-71.452,132.875-150.312,8.586,116.545" transform="translate(70 285.5)"/></g><g transform="translate(752.419 0.71)"><path class="g" d="M0,168.388C191.728,67,217.981-411.113,217.923-412.5l76.357.7C294.337-410.409,191.728,67,0,168.388" transform="translate(0 412.5)"/></g><g transform="translate(752.419 0.71)"><path class="h" d="M0,168.388C191.728,67,217.981-411.113,217.923-412.5l76.357.7C294.337-410.409,191.728,67,0,168.388Z" transform="translate(0 412.5)"/></g><g transform="translate(230.301 581.597)"><path class="i" d="M86.212,1.939,88.7,76.926l.557-1.408c-54.62,145.046-721.208-43.655-840.92,127.443C-631.951,31.864,34.636,140.3,89.256-4.75" transform="translate(751.664 4.75)"/></g></g></g><g transform="translate(-182.878 427.473)"><g class="j" transform="translate(0 -451.463)"><g transform="translate(0.431 4.146)"><path class="i" d="M0,306.844C0,5.372,497.285-129.155,591.266-449v.842h30.178V-449C549.88-119.055,33.519,34.134,1.423,278.145" transform="translate(0 449)"/></g></g></g></g></svg>