<svg xmlns="http://www.w3.org/2000/svg" xmlns:xlink="http://www.w3.org/1999/xlink" viewBox="0 0 1920 1080"><defs><style>.a,.d{fill:none;}.b{clip-path:url(#f);}.c{clip-path:url(#a);}.d,.f{stroke:#e9290f;}.d{stroke-linecap:round;stroke-width:20px;}.e{clip-path:url(#b);}.f{fill:#e9290f;}.g{fill:#ff6006;stroke:#ff6006;}.h{fill:#fff;}</style><clipPath id="a"><path class="a" d="M0-214H279.929V124.445H0Z" transform="translate(0 214)"/></clipPath><clipPath id="b"><path class="a" d="M0-564.6H803.7V528.716H0Z" transform="translate(0 564.6)"/></clipPath><clipPath id="f"><rect width="1920" height="1080"/></clipPath></defs><g id="e" class="b"><rect class="h" width="1920" height="1080"/><g transform="translate(-128 842)"><g class="c" transform="translate(9 -274)"><g transform="translate(15.815 107.543)"><path class="d" d="M0,79.087,215.087-136" transform="translate(0 136)"/></g><g transform="translate(49.027 15.815)"><path class="d" d="M0,79.087,215.087-136" transform="translate(0 136)"/></g></g></g><g transform="translate(1508.733 551.284)"><g class="e" transform="translate(43 -559.6)"><g transform="translate(0.765 6.003)"><path class="f" d="M227.46,525.345H-429.5v-.968C-183.883,369.461-177.608-386.72-392.748-561H263.428C599.521-255.822,34.753,124.06,227.515,524.377" transform="translate(429.5 561)"/></g><g transform="translate(36.328 6.971)"><path class="g" d="M110.817.468H-.078V-.5C102.4,457.556-7.344,940.612-209.25,1083.909-7.344,940.612,193.415,457.556,90.933-.5" transform="translate(209.25 0.5)"/></g><g transform="translate(491.135 6.003)"><path class="g" d="M25.9,525.345H-7.748l.055-.968C-200.455,124.06,364.313-255.822,28.22-561H61.871C397.964-255.822-166.8,124.06,25.958,524.377" transform="translate(48.911 561)"/></g></g><g class="e" transform="translate(43 -559.6)"><g transform="translate(0.765 6.003)"><path class="f" d="M227.46,525.345H-429.5v-.968C-183.883,369.461-177.608-386.72-392.748-561H263.428C599.521-255.822,34.753,124.06,227.515,524.377" transform="translate(429.5 561)"/></g><g transform="translate(36.328 6.971)"><path class="g" d="M110.817.468H-.078V-.5C102.4,457.556-7.344,940.612-209.25,1083.909-7.344,940.612,193.415,457.556,90.933-.5" transform="translate(209.25 0.5)"/></g><g transform="translate(491.135 6.003)"><path class="g" d="M25.9,525.345H-7.748l.055-.968C-200.455,124.06,364.313-255.822,28.22-561H61.871C397.964-255.822-166.8,124.06,25.958,524.377" transform="translate(48.911 561)"/></g></g></g><g transform="translate(-128 842)"><g class="c" transform="translate(9 -274)"><g transform="translate(15.815 107.543)"><path class="d" d="M0,79.087,215.087-136" transform="translate(0 136)"/></g><g transform="translate(49.027 15.815)"><path class="d" d="M0,79.087,215.087-136" transform="translate(0 136)"/></g></g></g></g></svg>