<svg xmlns="http://www.w3.org/2000/svg" xmlns:xlink="http://www.w3.org/1999/xlink" viewBox="0 0 1920 1080"><defs><style>.a,.d{fill:none;}.b{clip-path:url(#f);}.c{clip-path:url(#a);}.d,.f{stroke:#e9290f;}.d{stroke-linecap:round;stroke-width:20px;}.e{clip-path:url(#b);}.f{fill:#e9290f;}.g{fill:#ff6006;stroke:#ff6006;}.h{fill:#fff;}</style><clipPath id="a"><path class="a" d="M0-214H279.929V124.445H0Z" transform="translate(0 214)"/></clipPath><clipPath id="b"><path class="a" d="M0-564.6H803.7V525.554H0Z" transform="translate(0 564.6)"/></clipPath><clipPath id="f"><rect width="1920" height="1080"/></clipPath></defs><g id="e" class="b"><rect class="h" width="1920" height="1080"/><g transform="translate(-128 842)"><g class="c" transform="translate(9 -274)"><g transform="translate(15.815 107.543)"><path class="d" d="M0,79.087,215.087-136" transform="translate(0 136)"/></g><g transform="translate(49.027 15.815)"><path class="d" d="M0,79.087,215.087-136" transform="translate(0 136)"/></g></g></g><g transform="translate(1508.733 554.446)"><g class="e" transform="translate(43 -559.6)"><g transform="translate(0.765 5.986)"><path class="f" d="M227.46,522.2H-429.5v-.965C-183.883,366.77-177.608-387.224-392.748-561H263.428C599.521-256.7,34.753,122.078,227.515,521.238" transform="translate(429.5 561)"/></g><g transform="translate(36.328 6.951)"><path class="g" d="M110.817.465H-.078V-.5C102.4,456.231-7.344,937.89-209.25,1080.772-7.344,937.89,193.415,456.231,90.933-.5" transform="translate(209.25 0.5)"/></g><g transform="translate(491.135 5.986)"><path class="g" d="M25.9,522.2H-7.748l.055-.965C-200.455,122.078,364.313-256.7,28.22-561H61.871C397.964-256.7-166.8,122.078,25.958,521.238" transform="translate(48.911 561)"/></g></g><g class="e" transform="translate(43 -559.6)"><g transform="translate(0.765 5.986)"><path class="f" d="M227.46,522.2H-429.5v-.965C-183.883,366.77-177.608-387.224-392.748-561H263.428C599.521-256.7,34.753,122.078,227.515,521.238" transform="translate(429.5 561)"/></g><g transform="translate(36.328 6.951)"><path class="g" d="M110.817.465H-.078V-.5C102.4,456.231-7.344,937.89-209.25,1080.772-7.344,937.89,193.415,456.231,90.933-.5" transform="translate(209.25 0.5)"/></g><g transform="translate(491.135 5.986)"><path class="g" d="M25.9,522.2H-7.748l.055-.965C-200.455,122.078,364.313-256.7,28.22-561H61.871C397.964-256.7-166.8,122.078,25.958,521.238" transform="translate(48.911 561)"/></g></g></g><g transform="translate(-128 842)"><g class="c" transform="translate(9 -274)"><g transform="translate(15.815 107.543)"><path class="d" d="M0,79.087,215.087-136" transform="translate(0 136)"/></g><g transform="translate(49.027 15.815)"><path class="d" d="M0,79.087,215.087-136" transform="translate(0 136)"/></g></g></g></g></svg>