<svg xmlns="http://www.w3.org/2000/svg" xmlns:xlink="http://www.w3.org/1999/xlink" viewBox="0 0 414 736"><defs><style>.a,.d{fill:none;}.b{clip-path:url(#d);}.c{clip-path:url(#a);}.d,.f{stroke:#e9290f;}.d{stroke-linecap:round;stroke-width:20px;}.e{clip-path:url(#b);}.f{fill:#e9290f;}.g{fill:#ff6006;stroke:#ff6006;}.h{fill:#fff;}</style><clipPath id="a"><path class="a" d="M0-214H279.929V124.445H0Z" transform="translate(0 214)"/></clipPath><clipPath id="b"><path class="a" d="M0-564.6H503.212V171.8H0Z" transform="translate(0 564.6)"/></clipPath><clipPath id="d"><rect width="414" height="736"/></clipPath></defs><g id="c" class="b"><rect class="h" width="414" height="736"/><g transform="translate(-128 676)"><g class="c" transform="translate(9 -274)"><g transform="translate(15.815 107.543)"><path class="d" d="M0,79.087,215.087-136" transform="translate(0 136)"/></g><g transform="translate(49.027 15.815)"><path class="d" d="M0,79.087,215.087-136" transform="translate(0 136)"/></g></g></g><g transform="translate(262 564.2)"><g class="e" transform="translate(0 -564.6)"><g transform="translate(0.479 4.043)"><path class="f" d="M-18.166,170.7H-429.5v-.652C-275.715,65.71-271.786-443.614-406.489-561H4.354C214.787-355.448-138.824-99.58-18.132,170.052" transform="translate(429.5 561)"/></g><g transform="translate(22.745 4.695)"><path class="g" d="M-8.851.152H-78.284V-.5c64.166,308.522-4.549,633.883-130.966,730.4C-82.833,633.383,42.865,308.022-21.3-.5" transform="translate(209.25 0.5)"/></g><g transform="translate(307.508 4.043)"><path class="g" d="M-2.069,170.7H-23.138l.034-.652C-143.8-99.58,209.815-355.448-.618-561H20.452C230.885-355.448-122.726-99.58-2.034,170.052" transform="translate(48.911 561)"/></g></g></g></g></svg>