<svg xmlns="http://www.w3.org/2000/svg" xmlns:xlink="http://www.w3.org/1999/xlink" viewBox="0 0 1920 1080"><defs><style>.a,.g,.i{fill:none;}.b{clip-path:url(#d);}.c{clip-path:url(#a);}.d{fill:#e9290f;}.d,.i{stroke:#e9290f;}.e{fill:#ff6f29;stroke:#ff6f29;}.f{fill:#ff6006;}.g{stroke:#ff6006;}.h{clip-path:url(#b);}.i{stroke-linecap:round;stroke-width:20px;}.j{fill:#fff;}</style><clipPath id="a"><path class="a" d="M0-561.005H445.573v1085.9H0Z" transform="translate(0 561.005)"/></clipPath><clipPath id="b"><path class="a" d="M0-214H279.929V124.445H0Z" transform="translate(0 214)"/></clipPath><clipPath id="d"><rect width="1920" height="1080"/></clipPath></defs><g id="c" class="b"><rect class="j" width="1920" height="1080"/><g transform="translate(-7.024 557.106)"><g class="c" transform="translate(0 -561.005)"><g transform="translate(0 0.978)"><path class="d" d="M0,523.954H232.811c-156.5-228.4,287.95-684.73,200.136-1082.986L1.021-560V524.921" transform="translate(0 560)"/></g><g transform="translate(1.021 459.809)"><path class="e" d="M0,218.428,1.021,106.161C75.808,9.6,148.217-105.885,204.759-233.455,169.337-50.524,91.407,100.623,1.021,218.428" transform="translate(0 233.455)"/></g><g transform="translate(202.177 0.977)"><path class="f" d="M1.837,221.786C64.306,80.837,107.4-74.865,112.941-236.076l-114.7-.968c32.757,170,29.871,323.159,3.6,458.83" transform="translate(1.763 237.044)"/></g><g transform="translate(202.177 0.977)"><path class="g" d="M1.837,221.786C64.306,80.837,107.4-74.865,112.941-236.076l-114.7-.968C30.994-67.039,28.108,86.115,1.837,221.786Z" transform="translate(1.763 237.044)"/></g></g></g><g transform="translate(1720 905)"><g class="h" transform="translate(0 -214)"><g transform="translate(15.815 107.543)"><path class="i" d="M0,79.087,215.087-136" transform="translate(0 136)"/></g><g transform="translate(49.027 15.815)"><path class="i" d="M0,79.087,215.087-136" transform="translate(0 136)"/></g></g></g></g></svg>