<svg xmlns="http://www.w3.org/2000/svg" xmlns:xlink="http://www.w3.org/1999/xlink" viewBox="0 0 1920 1080"><defs><style>.a{fill:none;}.b{clip-path:url(#c);}.c{clip-path:url(#a);}.d{fill:#e9290f;stroke:#e9290f;}.e{fill:#ff6006;stroke:#ff6006;}.f{fill:#fff;}</style><clipPath id="a"><path class="a" d="M0-564.6H725.079V528.548H0Z" transform="translate(0 564.6)"/></clipPath><clipPath id="c"><rect width="1920" height="1080"/></clipPath></defs><g id="b" class="b"><rect class="f" width="1920" height="1080"/><g transform="translate(-425 551.452)"><g class="c" transform="translate(62 -564.6)"><g transform="translate(0.69 6.002)"><path class="d" d="M163.191,525.178H-429.5v-.968C-207.911,369.318-202.25-386.747-396.344-561H195.641c303.214,305.131-206.3,684.954-32.4,1085.21" transform="translate(429.5 561)"/></g><g transform="translate(32.774 6.97)"><path class="e" d="M79.506.468H-20.541V-.5C71.916,457.486-27.1,940.467-209.25,1083.742-27.1,940.467,154.023,457.486,61.566-.5" transform="translate(209.25 0.5)"/></g><g transform="translate(443.088 6.002)"><path class="e" d="M18.584,525.178H-11.775l.05-.968C-185.63,123.954,323.888-255.869,20.675-561H51.034c303.214,305.131-206.3,684.954-32.4,1085.21" transform="translate(48.911 561)"/></g></g></g></g></svg>