<svg xmlns="http://www.w3.org/2000/svg" xmlns:xlink="http://www.w3.org/1999/xlink" viewBox="0 0 414 736"><defs><style>.a,.d{fill:none;}.b{clip-path:url(#d);}.c{clip-path:url(#a);}.d,.f{stroke:#e9290f;}.d{stroke-linecap:round;stroke-width:20px;}.e{clip-path:url(#b);}.f{fill:#e9290f;}.g{fill:#ff6006;stroke:#ff6006;}.h{fill:#fff;}</style><clipPath id="a"><path class="a" d="M0-214H279.929V124.445H0Z" transform="translate(0 214)"/></clipPath><clipPath id="b"><path class="a" d="M0-564.6H503.212v746H0Z" transform="translate(0 564.6)"/></clipPath><clipPath id="d"><rect width="414" height="736"/></clipPath></defs><g id="c" class="b"><rect class="h" width="414" height="736"/><g transform="translate(-128 676)"><g class="c" transform="translate(9 -274)"><g transform="translate(15.815 107.543)"><path class="d" d="M0,79.087,215.087-136" transform="translate(0 136)"/></g><g transform="translate(49.027 15.815)"><path class="d" d="M0,79.087,215.087-136" transform="translate(0 136)"/></g></g></g><g transform="translate(262 554.597)"><g class="e" transform="translate(0 -564.6)"><g transform="translate(0.479 4.096)"><path class="f" d="M-18.166,180.246H-429.5v-.661C-275.715,73.882-271.786-442.084-406.489-561H4.354C214.787-352.768-138.824-93.563-18.132,179.585" transform="translate(429.5 561)"/></g><g transform="translate(22.745 4.757)"><path class="g" d="M-8.851.161H-78.284V-.5c64.166,312.546-4.549,642.149-130.966,739.925C-82.833,641.649,42.865,312.046-21.3-.5" transform="translate(209.25 0.5)"/></g><g transform="translate(307.508 4.096)"><path class="g" d="M-2.069,180.246H-23.138l.034-.661C-143.8-93.563,209.815-352.768-.618-561H20.452C230.885-352.768-122.726-93.563-2.034,179.585" transform="translate(48.911 561)"/></g></g></g></g></svg>